<mxfile host="app.diagrams.net" modified="2021-01-26T18:35:39.275Z" agent="5.0 (Windows NT 10.0; Win64; x64) AppleWebKit/537.36 (KHTML, like Gecko) Chrome/87.0.4280.141 Safari/537.36" etag="UopkIJaj7rBnglsGgbzz" version="14.2.7" type="github">
  <diagram id="G1TnxGs4Q9F2H05ZXC0J" name="Page-1">
    <mxGraphModel dx="868" dy="450" grid="1" gridSize="10" guides="1" tooltips="1" connect="1" arrows="1" fold="1" page="1" pageScale="1" pageWidth="827" pageHeight="1169" math="0" shadow="0">
      <root>
        <mxCell id="0" />
        <mxCell id="1" parent="0" />
        <mxCell id="LKHoJZJlkah-HH3FBG73-1" style="vsdxID=1;fillColor=none;gradientColor=none;strokeColor=none;strokeWidth=2;spacingTop=-3;spacingBottom=-3;spacingLeft=-3;spacingRight=-3;labelBackgroundColor=none;rounded=1;html=1;whiteSpace=wrap;" vertex="1" parent="1">
          <mxGeometry x="1054" y="369" width="57" height="76" as="geometry" />
        </mxCell>
        <mxCell id="LKHoJZJlkah-HH3FBG73-2" style="vsdxID=2;fillColor=#0072c6;gradientColor=none;strokeOpacity=0;shape=stencil(pZHREoIgEEW/hlcGd9XssTH7DycxmUgc1LK/D1yaNKen3nYv596FhWHeN2UnGYh+sOYqH6oaGoZHBqDaRlo1uIphwTCvjZUXa8a2or4rPemrm7n7hIl8wjtAPKmLkKe7WTkRrFX7E85SjriEz6Ol6GiNh3aPPItJmoAkAB5DoIIUiWCbkITkHYNrYB4qDptLJn88aQO74rO5WmlNi1+ef2/aSfRLWLwA);strokeWidth=2;spacingTop=-3;spacingBottom=-3;spacingLeft=-3;spacingRight=-3;labelBackgroundColor=none;rounded=0;html=1;whiteSpace=wrap;" vertex="1" parent="LKHoJZJlkah-HH3FBG73-1">
          <mxGeometry width="57" height="76" as="geometry" />
        </mxCell>
        <mxCell id="LKHoJZJlkah-HH3FBG73-3" style="vsdxID=3;fillColor=#0072c6;gradientColor=none;strokeOpacity=0;shape=stencil(lVHLDoMgEPwargRZFT021v6HqVhJrRjUVv++4tL46CPpbWd2ZllmCSRtmTWScNZ2Rl/lQ+VdSeBIOFd1KY3qpopASiAptJEXo/s6R9xkVmmrm77bCQP6/JgCWBdnIzIeYzM+obxS9UoesF/ac29wtodtIWggnMHbOtjAd8ToiBho5DsN7DWOiMLX1vPL7PC26GJxGGgovv/rQwx/G7ZZTMWSeaGqCk+27u9vNFF4X0if);strokeWidth=2;spacingTop=-3;spacingBottom=-3;spacingLeft=-3;spacingRight=-3;labelBackgroundColor=none;rounded=0;html=1;whiteSpace=wrap;" vertex="1" parent="LKHoJZJlkah-HH3FBG73-1">
          <mxGeometry width="57" height="76" as="geometry" />
        </mxCell>
        <mxCell id="LKHoJZJlkah-HH3FBG73-4" style="vsdxID=4;fillColor=#ffffff;gradientColor=none;fillOpacity=15;strokeOpacity=0;shape=stencil(lVHLDoMgEPwargRZFT021v6HqVhJrRjUVv++4tL46CPpbWd2ZllmCSRtmTWScNZ2Rl/lQ+VdSeBIOFd1KY3qpopASiAptJEXo/s6R9xkVmmrm77bCQP6/JgCWBdnIzIeYzM+obxS9UoesF/ac29wtodtIWggnMHbOtjAd8ToiBho5DsN7DWOiMLX1vPL7PC26GJxGGgovv/rQwx/G7ZZTMWSeaGqCk+27u9vNFF4X0if);strokeWidth=2;spacingTop=-3;spacingBottom=-3;spacingLeft=-3;spacingRight=-3;labelBackgroundColor=none;rounded=0;html=1;whiteSpace=wrap;" vertex="1" parent="LKHoJZJlkah-HH3FBG73-1">
          <mxGeometry width="57" height="76" as="geometry" />
        </mxCell>
        <mxCell id="LKHoJZJlkah-HH3FBG73-5" style="vsdxID=5;fillColor=#ffffff;gradientColor=none;strokeOpacity=0;shape=stencil(hVLLEoIwDPyaXjshEapHB/U/HC3CiOAUfPD3FlO0dBB7Sreb7M42gtIm31+1QGhaU5/1ozi2uaCNQCyqXJuitZWgraA0q40+mfpWHfl+3ffMvrrU937Ck/sigL4HoXN3kol6IzumH26G+VHY4ACMZBSvvMPt8ER+V0rGDuochEoSORYxFA9TKaS8fcB6wgqiXGBgxpvsxCDQ/mWXxnSazGPSRxBIIkH5AsuxH9/12OKvLOCPvp/w2NKg+f00nPdIIX8mBlt/tyorypKX8rM5tgi30EK8wbR9AQ==);strokeWidth=2;spacingTop=-3;spacingBottom=-3;spacingLeft=-3;spacingRight=-3;labelBackgroundColor=none;rounded=0;html=1;whiteSpace=wrap;" vertex="1" parent="LKHoJZJlkah-HH3FBG73-1">
          <mxGeometry width="57" height="76" as="geometry" />
        </mxCell>
        <mxCell id="LKHoJZJlkah-HH3FBG73-6" style="vsdxID=6;fillColor=#7fba00;gradientColor=none;strokeOpacity=0;shape=stencil(hVPLEsIgDPwarkxIdKBHx8d/OFptx0cdWl9/L5hoadXKKV12yRK2iqZ1sTzlCqFufLXLr+W6KRTNFGJ5LHJfNqFSNFc03VQ+3/rqfFzz92kZmbE6VJd4wo11LtPWRhXCnRGD2tETWbBgdfasMIkE2mVELtvGvvRwQ4as0ZkTlkAYIBQWMTQGoVCf8jQCky9e0GnAbv/0ZGlmQCNk6eqaSS1TKzFdP73BfPXzs5Ps2+AtGR30jKbXEYi0G6UKGg1PLfL/mEyfw/zpgsNvjsPXos+QDQwz1G1MN+V+zyl/BzEU/VgHiH8Jmj8A);strokeWidth=2;spacingTop=-3;spacingBottom=-3;spacingLeft=-3;spacingRight=-3;labelBackgroundColor=none;rounded=0;html=1;whiteSpace=wrap;" vertex="1" parent="LKHoJZJlkah-HH3FBG73-1">
          <mxGeometry width="57" height="76" as="geometry" />
        </mxCell>
        <mxCell id="LKHoJZJlkah-HH3FBG73-7" style="vsdxID=7;fillColor=#b8d432;gradientColor=none;strokeOpacity=0;shape=stencil(lVRBcoMwDHyNrxpLMtgcO2n6j0xDGqZpyBDS0t/XxAZsEpfBJyF50WolS/DmetxdSkHy2jb1Z/lT7duj4FdBVJ2PZVO11hK8Fbw51E350dS38959X3b9zd76qr/7P3QOZxAU9SiSv86DBhTePW8O8H5rHAI9JIe88BDvwhyMksFhF+/IQwrQOgijh/swKigohHtGHQdwD/EuJAuZWMqXZ0QTWX1YJ5J6UhqhMDFPnlepYp6ZjEn29xc4koEh8cArmWVQSwLJIjwxy1RdPMFxvZjJrLjQw4E1A82IJqeGx0nM5m2Ph/O5pBkYfphPymI+rAFZrBrDeXvv9xfI5GRrDFVT62TTClA/yDYWMzyQ4BX/o5S1pz1wqE4nt0bGl26N+d6wLrdzePsH);strokeWidth=2;spacingTop=-3;spacingBottom=-3;spacingLeft=-3;spacingRight=-3;labelBackgroundColor=none;rounded=0;html=1;whiteSpace=wrap;" vertex="1" parent="LKHoJZJlkah-HH3FBG73-1">
          <mxGeometry width="57" height="76" as="geometry" />
        </mxCell>
        <mxCell id="LKHoJZJlkah-HH3FBG73-8" style="vsdxID=8;fillColor=#ffffff;gradientColor=none;strokeOpacity=0;shape=stencil(rVnZchQxDPyafXX5Ph4pjv+gIJAtQkJtAoS/R5MZXy3PejjytPFKM22pJbW9J/P68fb9t5uTlo9Pl4cvNz/PH59uT+bNSevz/e3N5fxEn07m7cm8/vRwufl8efh+/3H9/9v7xXL59PXhx/KE59XPWKHi4qXlr3XFWyHXlXerw4fvl9VDcZdtyXthzLr0rDcrI2TYrLYlH/OT5bPZrKSI2Wpb8ik/6+X98tUAgo7Chx5CkMKlHoJ2wvcIghLa9Qi0Ygiq1T4CFYVDBM3Dt/cpJ5IBCFIEgKCMCIYFIWmAcHe+bxLXOpXEbRHYSZzyBDA1fzyLysMGEqQwQPR0SWmBHmbJM8JpeHPoX6ut8Eo2fxBEQopBpGSbBEj8ASbRni2AcTn2FY9HJpFRYbxhRmaYkT0AHt5vRLTs/RqLyXAqO2ExBFrM82FFwHxoYkLLFOA1pVDFEZMyOFWQFHDEewyPnIMjzpbkb0susvyohlLbkvO1HxhutS05cwAC56tr9pchIGVVj8cmEYEwtDfoPJa6ipp3npBGtbF9bwNrQ9TjnAU4FJ4ug/6EXJIOwPkDbI5CIZ69N+VBQSzoulJgSJMacTGPEC2CBaQhp2eve7ZOW0p15zMYe7IGsdIAx14bgMxEyTI/qNRqdbVSJQyd9uG1OGVsCYKVoVgPx6pQs/g1PkOXAXYywEJWvNFJkdI17JSleIUML/6sxKfTfPe1GSnCrIkvyOykoPikdK5TWmNk1MAxbI4rHSNyJJr+p3hNJ9AZZLWl4GpNJ0AQWAc20O6w91LBFZPa/qfbJxWZ6Vpmk2IqpVWkeQJpNoFaqzqgGYReHy+aFZges/bYYXrrUjHjvPChCo+8ZHvAfjDP/SRgi3gwAxr+asBFQELgdOsCqBKh4HMtg6RwGBgUJHGZ7urbB23e9aeO4CGqvUP7lmMOqsqNoarnobPA8sCJRrPIAtHac0cePwOiJd5R2fuVSF3fRl1K4kDyPBVsUmgoQgozO3AlIbEO3bxBmiDwsGCEVT0CMsLZt3ALCNNaZQ6lHOmrCFBZuOYUoBnOg32ZAqJw/Om50LEDNVDkbM0Jdb0ejl22Okhywx08C5IonEbH8ujYwCp90aBQ3TMdSLFIKFIP6EBXz1BHdSCVuINDluX8paERI4vPdI541EQOwO2lpbRmkaBbO174zQG64ZKdKXoqUxsGDbiIDybo2xFT570xgx0WbI1Lbd0BC/+Pb4dgXFJQ+j59/Urixf5Kz2tPcUVZVAbUGseLCdqbxVSY+XWAC+w6gCYJih1i9/B4XBU2016On1Kq1RU8NEpRiw7GUjMdNUdd6xYF6IGIWCdMGO21shObMPUwKOTBYbwxqiljd14MjWW3JfzWbRdyvToZNoP9QBHr5+M7Cj2/SaKEKpzSPDjEFg9s8ce6LjY2PyigINh9mmNsGei6I9dZbXXW3ouE3S37Khvwdq3tLEU2/N/mlXQ9Xhdx1x7KUWQGOlqmf3OwYd86ynrK/Btryn1/Ju8d+Hb/2IFtlz7UXxo+ne/u1h8q2u/xlwlaWn/VMG9/Aw==);strokeWidth=2;spacingTop=-3;spacingBottom=-3;spacingLeft=-3;spacingRight=-3;labelBackgroundColor=none;rounded=0;html=1;whiteSpace=wrap;" vertex="1" parent="LKHoJZJlkah-HH3FBG73-1">
          <mxGeometry width="57" height="76" as="geometry" />
        </mxCell>
        <mxCell id="LKHoJZJlkah-HH3FBG73-9" value="&lt;p style=&quot;align:center;margin-left:0;margin-right:0;margin-top:0px;margin-bottom:0px;text-indent:0;valign:middle;direction:ltr;&quot;&gt;&lt;font style=&quot;font-size:11px;font-family:Arial;color:#000000;direction:ltr;letter-spacing:0px;line-height:100%;opacity:1&quot;&gt;DB&amp;prime;s PORVENIR&lt;/font&gt;&lt;/p&gt;" style="text;vsdxID=1;fillColor=none;gradientColor=none;strokeColor=none;strokeWidth=2;spacingTop=-3;spacingBottom=-3;spacingLeft=-3;spacingRight=-3;labelBackgroundColor=none;rounded=1;html=1;whiteSpace=wrap;verticalAlign=middle;align=center;;html=1;" vertex="1" parent="LKHoJZJlkah-HH3FBG73-1">
          <mxGeometry x="-19.05" y="81.71" width="95.89" height="13.34" as="geometry" />
        </mxCell>
        <mxCell id="LKHoJZJlkah-HH3FBG73-10" style="vsdxID=9;fillColor=none;gradientColor=none;strokeColor=none;strokeWidth=2;spacingTop=-3;spacingBottom=-3;spacingLeft=-3;spacingRight=-3;labelBackgroundColor=none;rounded=1;html=1;whiteSpace=wrap;" vertex="1" parent="1">
          <mxGeometry x="952" y="369" width="57" height="76" as="geometry" />
        </mxCell>
        <mxCell id="LKHoJZJlkah-HH3FBG73-11" style="vsdxID=10;fillColor=#0072c6;gradientColor=none;strokeOpacity=0;shape=stencil(pZHREoIgEEW/hlcGd9XssTH7DycxmUgc1LK/D1yaNKen3nYv596FhWHeN2UnGYh+sOYqH6oaGoZHBqDaRlo1uIphwTCvjZUXa8a2or4rPemrm7n7hIl8wjtAPKmLkKe7WTkRrFX7E85SjriEz6Ol6GiNh3aPPItJmoAkAB5DoIIUiWCbkITkHYNrYB4qDptLJn88aQO74rO5WmlNi1+ef2/aSfRLWLwA);strokeWidth=2;spacingTop=-3;spacingBottom=-3;spacingLeft=-3;spacingRight=-3;labelBackgroundColor=none;rounded=0;html=1;whiteSpace=wrap;" vertex="1" parent="LKHoJZJlkah-HH3FBG73-10">
          <mxGeometry width="57" height="76" as="geometry" />
        </mxCell>
        <mxCell id="LKHoJZJlkah-HH3FBG73-12" style="vsdxID=11;fillColor=#0072c6;gradientColor=none;strokeOpacity=0;shape=stencil(lVHLDoMgEPwargRZFT021v6HqVhJrRjUVv++4tL46CPpbWd2ZllmCSRtmTWScNZ2Rl/lQ+VdSeBIOFd1KY3qpopASiAptJEXo/s6R9xkVmmrm77bCQP6/JgCWBdnIzIeYzM+obxS9UoesF/ac29wtodtIWggnMHbOtjAd8ToiBho5DsN7DWOiMLX1vPL7PC26GJxGGgovv/rQwx/G7ZZTMWSeaGqCk+27u9vNFF4X0if);strokeWidth=2;spacingTop=-3;spacingBottom=-3;spacingLeft=-3;spacingRight=-3;labelBackgroundColor=none;rounded=0;html=1;whiteSpace=wrap;" vertex="1" parent="LKHoJZJlkah-HH3FBG73-10">
          <mxGeometry width="57" height="76" as="geometry" />
        </mxCell>
        <mxCell id="LKHoJZJlkah-HH3FBG73-13" style="vsdxID=12;fillColor=#ffffff;gradientColor=none;fillOpacity=15;strokeOpacity=0;shape=stencil(lVHLDoMgEPwargRZFT021v6HqVhJrRjUVv++4tL46CPpbWd2ZllmCSRtmTWScNZ2Rl/lQ+VdSeBIOFd1KY3qpopASiAptJEXo/s6R9xkVmmrm77bCQP6/JgCWBdnIzIeYzM+obxS9UoesF/ac29wtodtIWggnMHbOtjAd8ToiBho5DsN7DWOiMLX1vPL7PC26GJxGGgovv/rQwx/G7ZZTMWSeaGqCk+27u9vNFF4X0if);strokeWidth=2;spacingTop=-3;spacingBottom=-3;spacingLeft=-3;spacingRight=-3;labelBackgroundColor=none;rounded=0;html=1;whiteSpace=wrap;" vertex="1" parent="LKHoJZJlkah-HH3FBG73-10">
          <mxGeometry width="57" height="76" as="geometry" />
        </mxCell>
        <mxCell id="LKHoJZJlkah-HH3FBG73-14" style="vsdxID=13;fillColor=#ffffff;gradientColor=none;strokeOpacity=0;shape=stencil(hVLLEoIwDPyaXjshEapHB/U/HC3CiOAUfPD3FlO0dBB7Sreb7M42gtIm31+1QGhaU5/1ozi2uaCNQCyqXJuitZWgraA0q40+mfpWHfl+3ffMvrrU937Ck/sigL4HoXN3kol6IzumH26G+VHY4ACMZBSvvMPt8ER+V0rGDuochEoSORYxFA9TKaS8fcB6wgqiXGBgxpvsxCDQ/mWXxnSazGPSRxBIIkH5AsuxH9/12OKvLOCPvp/w2NKg+f00nPdIIX8mBlt/tyorypKX8rM5tgi30EK8wbR9AQ==);strokeWidth=2;spacingTop=-3;spacingBottom=-3;spacingLeft=-3;spacingRight=-3;labelBackgroundColor=none;rounded=0;html=1;whiteSpace=wrap;" vertex="1" parent="LKHoJZJlkah-HH3FBG73-10">
          <mxGeometry width="57" height="76" as="geometry" />
        </mxCell>
        <mxCell id="LKHoJZJlkah-HH3FBG73-15" style="vsdxID=14;fillColor=#7fba00;gradientColor=none;strokeOpacity=0;shape=stencil(hVPLEsIgDPwarkxIdKBHx8d/OFptx0cdWl9/L5hoadXKKV12yRK2iqZ1sTzlCqFufLXLr+W6KRTNFGJ5LHJfNqFSNFc03VQ+3/rqfFzz92kZmbE6VJd4wo11LtPWRhXCnRGD2tETWbBgdfasMIkE2mVELtvGvvRwQ4as0ZkTlkAYIBQWMTQGoVCf8jQCky9e0GnAbv/0ZGlmQCNk6eqaSS1TKzFdP73BfPXzs5Ps2+AtGR30jKbXEYi0G6UKGg1PLfL/mEyfw/zpgsNvjsPXos+QDQwz1G1MN+V+zyl/BzEU/VgHiH8Jmj8A);strokeWidth=2;spacingTop=-3;spacingBottom=-3;spacingLeft=-3;spacingRight=-3;labelBackgroundColor=none;rounded=0;html=1;whiteSpace=wrap;" vertex="1" parent="LKHoJZJlkah-HH3FBG73-10">
          <mxGeometry width="57" height="76" as="geometry" />
        </mxCell>
        <mxCell id="LKHoJZJlkah-HH3FBG73-16" style="vsdxID=15;fillColor=#b8d432;gradientColor=none;strokeOpacity=0;shape=stencil(lVRBcoMwDHyNrxpLMtgcO2n6j0xDGqZpyBDS0t/XxAZsEpfBJyF50WolS/DmetxdSkHy2jb1Z/lT7duj4FdBVJ2PZVO11hK8Fbw51E350dS38959X3b9zd76qr/7P3QOZxAU9SiSv86DBhTePW8O8H5rHAI9JIe88BDvwhyMksFhF+/IQwrQOgijh/swKigohHtGHQdwD/EuJAuZWMqXZ0QTWX1YJ5J6UhqhMDFPnlepYp6ZjEn29xc4koEh8cArmWVQSwLJIjwxy1RdPMFxvZjJrLjQw4E1A82IJqeGx0nM5m2Ph/O5pBkYfphPymI+rAFZrBrDeXvv9xfI5GRrDFVT62TTClA/yDYWMzyQ4BX/o5S1pz1wqE4nt0bGl26N+d6wLrdzePsH);strokeWidth=2;spacingTop=-3;spacingBottom=-3;spacingLeft=-3;spacingRight=-3;labelBackgroundColor=none;rounded=0;html=1;whiteSpace=wrap;" vertex="1" parent="LKHoJZJlkah-HH3FBG73-10">
          <mxGeometry width="57" height="76" as="geometry" />
        </mxCell>
        <mxCell id="LKHoJZJlkah-HH3FBG73-17" style="vsdxID=16;fillColor=#ffffff;gradientColor=none;strokeOpacity=0;shape=stencil(rVnZchQxDPyafXX5Ph4pjv+gIJAtQkJtAoS/R5MZXy3PejjytPFKM22pJbW9J/P68fb9t5uTlo9Pl4cvNz/PH59uT+bNSevz/e3N5fxEn07m7cm8/vRwufl8efh+/3H9/9v7xXL59PXhx/KE59XPWKHi4qXlr3XFWyHXlXerw4fvl9VDcZdtyXthzLr0rDcrI2TYrLYlH/OT5bPZrKSI2Wpb8ik/6+X98tUAgo7Chx5CkMKlHoJ2wvcIghLa9Qi0Ygiq1T4CFYVDBM3Dt/cpJ5IBCFIEgKCMCIYFIWmAcHe+bxLXOpXEbRHYSZzyBDA1fzyLysMGEqQwQPR0SWmBHmbJM8JpeHPoX6ut8Eo2fxBEQopBpGSbBEj8ASbRni2AcTn2FY9HJpFRYbxhRmaYkT0AHt5vRLTs/RqLyXAqO2ExBFrM82FFwHxoYkLLFOA1pVDFEZMyOFWQFHDEewyPnIMjzpbkb0susvyohlLbkvO1HxhutS05cwAC56tr9pchIGVVj8cmEYEwtDfoPJa6ipp3npBGtbF9bwNrQ9TjnAU4FJ4ug/6EXJIOwPkDbI5CIZ69N+VBQSzoulJgSJMacTGPEC2CBaQhp2eve7ZOW0p15zMYe7IGsdIAx14bgMxEyTI/qNRqdbVSJQyd9uG1OGVsCYKVoVgPx6pQs/g1PkOXAXYywEJWvNFJkdI17JSleIUML/6sxKfTfPe1GSnCrIkvyOykoPikdK5TWmNk1MAxbI4rHSNyJJr+p3hNJ9AZZLWl4GpNJ0AQWAc20O6w91LBFZPa/qfbJxWZ6Vpmk2IqpVWkeQJpNoFaqzqgGYReHy+aFZges/bYYXrrUjHjvPChCo+8ZHvAfjDP/SRgi3gwAxr+asBFQELgdOsCqBKh4HMtg6RwGBgUJHGZ7urbB23e9aeO4CGqvUP7lmMOqsqNoarnobPA8sCJRrPIAtHac0cePwOiJd5R2fuVSF3fRl1K4kDyPBVsUmgoQgozO3AlIbEO3bxBmiDwsGCEVT0CMsLZt3ALCNNaZQ6lHOmrCFBZuOYUoBnOg32ZAqJw/Om50LEDNVDkbM0Jdb0ejl22Okhywx08C5IonEbH8ujYwCp90aBQ3TMdSLFIKFIP6EBXz1BHdSCVuINDluX8paERI4vPdI541EQOwO2lpbRmkaBbO174zQG64ZKdKXoqUxsGDbiIDybo2xFT570xgx0WbI1Lbd0BC/+Pb4dgXFJQ+j59/Urixf5Kz2tPcUVZVAbUGseLCdqbxVSY+XWAC+w6gCYJih1i9/B4XBU2016On1Kq1RU8NEpRiw7GUjMdNUdd6xYF6IGIWCdMGO21shObMPUwKOTBYbwxqiljd14MjWW3JfzWbRdyvToZNoP9QBHr5+M7Cj2/SaKEKpzSPDjEFg9s8ce6LjY2PyigINh9mmNsGei6I9dZbXXW3ouE3S37Khvwdq3tLEU2/N/mlXQ9Xhdx1x7KUWQGOlqmf3OwYd86ynrK/Btryn1/Ju8d+Hb/2IFtlz7UXxo+ne/u1h8q2u/xlwlaWn/VMG9/Aw==);strokeWidth=2;spacingTop=-3;spacingBottom=-3;spacingLeft=-3;spacingRight=-3;labelBackgroundColor=none;rounded=0;html=1;whiteSpace=wrap;" vertex="1" parent="LKHoJZJlkah-HH3FBG73-10">
          <mxGeometry width="57" height="76" as="geometry" />
        </mxCell>
        <mxCell id="LKHoJZJlkah-HH3FBG73-18" value="&lt;p style=&quot;align:center;margin-left:0;margin-right:0;margin-top:0px;margin-bottom:0px;text-indent:0;valign:middle;direction:ltr;&quot;&gt;&lt;font style=&quot;font-size:11px;font-family:Arial;color:#000000;direction:ltr;letter-spacing:0px;line-height:100%;opacity:1&quot;&gt;ISILOANSWEB&lt;/font&gt;&lt;/p&gt;" style="text;vsdxID=9;fillColor=none;gradientColor=none;strokeColor=none;strokeWidth=2;spacingTop=-3;spacingBottom=-3;spacingLeft=-3;spacingRight=-3;labelBackgroundColor=none;rounded=1;html=1;whiteSpace=wrap;verticalAlign=middle;align=center;;html=1;" vertex="1" parent="LKHoJZJlkah-HH3FBG73-10">
          <mxGeometry x="-19.05" y="81.71" width="95.89" height="13.34" as="geometry" />
        </mxCell>
        <mxCell id="LKHoJZJlkah-HH3FBG73-19" style="vsdxID=17;fillColor=none;gradientColor=none;strokeColor=none;strokeWidth=0;spacingTop=-3;spacingBottom=-3;spacingLeft=-3;spacingRight=-3;labelBackgroundColor=none;rounded=1;html=1;whiteSpace=wrap;" vertex="1" parent="1">
          <mxGeometry x="342" y="299" width="292" height="215" as="geometry" />
        </mxCell>
        <mxCell id="LKHoJZJlkah-HH3FBG73-20" style="vsdxID=18;fillColor=#59b4d9;gradientColor=none;strokeOpacity=0;shape=stencil(rVjbUtwwDP2affXY8v2xQ+l/MGUpO6VsZ4GW/n2VJr5ISpxlpjwtiRQdS0dHSg725uXx7ufxAPrl9XL+fvx9un99PNjPB4DT8+PxcnrFXwd7e7A3D+fL8dvl/PZ8P///826ynH79OP+anvA++zmt0uQE+s98ISRl/134Mps/nZ47c7DKmP9q//XtMuMx833jFGTyt7gb5q/fYb4SlVl1WG77rAK5HRZ3W9xhcVguuKSyaRD1pxWUWzGX2zYpnSlKY1VKA5iQlafA+txZZrSNDJyKFEz35BIrlCslutUsdqoWtlgo4FmhtbZGpXKoesV1PsIBuMNUjDxihw0tJ40wWfd5jfSwLtCjstIVBOXkPiqb6dELQwZ0MALWVpgFRTKMlRSkychB3f4MBYnekZUn7DJjK2RJbRacRQ9LcbkauELRHIpzpOorTIm5PndJuh4SJTVOLyGQ0kOeJC8K0nza+bw4X2dkqxE/II2+nmxUnX0AGTtAyzJX6bIqsspPHhSNJ4K6CmYrTJHU+syKS1MgIWDzD+gYeIrQYVdDOy/DvSqSkLlU9UYlWmpC8gEA0yjhqdASQat/KYsXJMEUctXwZp8lKDajMeJCkcOKxgPF4mwZXwWK8yqxsVGNtpFgY1sevT26TInYuqrEd8qTscamq7Wie6ScsrEQa8mXMzumDgK8RrGl4D3woedYq2N9Yu67giHH5BtZ0rhbUi0afzNS41N/9woVQN7wGuOlXWwcWDBCkZDIjO3YSY73G/CixjIXBsGBt3tkkxrh0K2KTe4ECpLslkFSkr+iB50oGIo3g9ZXtWikESqwQpl8hQpUZhr55EJeJshZi6J0bVNOn3ZXNssGa/Y7rdZFKWjlrotikli2cHrsylSxGdQKaOz2VKgcWBXUkra4xmWu3PmKNg9yEU1RqHU/YdpOBXx4yPEVfUnqAEJuboa7tR1HanZvZaXVAAJby7hQM5eVRUT2WnT8fa4WdTDxm80H5K85Na0WG5lrdGgjluzi2onciYELcgUW608SQ8ux1aM3qUKA9BlMrd6lCcP+LibBGFzPSCsxScRiJwaOtbiXcsgbnBKqdxD2a7op2MTkwALfHvG9lqTPUsj42sZbEWD/nTuIRRLE/gFeNCKg0JCBxlY5sPX9xDaPfZqLVQ7MxrFp4erXACtGG2u3a76RsGYLjsbsYRZKMTKD3DPCkEDYd4xAvYOw3vv2hT/ad7OH09PT/Nmtv8+/s+Gl+Rudvf0L);spacingTop=-3;spacingBottom=-3;spacingLeft=-3;spacingRight=-3;labelBackgroundColor=none;rounded=0;html=1;whiteSpace=wrap;" vertex="1" parent="LKHoJZJlkah-HH3FBG73-19">
          <mxGeometry width="292" height="215" as="geometry" />
        </mxCell>
        <mxCell id="LKHoJZJlkah-HH3FBG73-21" style="vsdxID=19;fillColor=#68217a;gradientColor=none;strokeOpacity=0;shape=stencil(hVJdE4IgEPw1vDLAgdJjY/U/mrJkMnXIvv592FGiaPl0Lrt3y3IEskuxbXIi2KW19Sm/m31bEFgRIUxV5Na0riKwJpAdapsfbX2t9vjfbDtmV53rW9fhgTqVUJV2KsGeiKScSkQ2KNhdLSp4LPFQqqnWCD2EZ3GqFp7lIS17FiAkFZXcs2DMes9nywkLsKAiGVoIm/t5IB2LBZ8a+gldQyAZ+hnlMe1nbpI/TyRlychccIVPZJoy+JtPz5r3E4bP4+YifkgRG4WY9SMSV/c7djBliSv63SJXjHfSQbjPsH4B);spacingTop=-3;spacingBottom=-3;spacingLeft=-3;spacingRight=-3;labelBackgroundColor=none;rounded=0;html=1;whiteSpace=wrap;" vertex="1" parent="LKHoJZJlkah-HH3FBG73-19">
          <mxGeometry width="292" height="215" as="geometry" />
        </mxCell>
        <mxCell id="LKHoJZJlkah-HH3FBG73-22" style="vsdxID=20;fillColor=#000000;gradientColor=none;fillOpacity=0;strokeOpacity=0;shape=stencil(hVRdb8IwDPw1fT0ldhynz4z9DyTKqMYoKt3Xv1+6Co1E1Htz3btcbF/c8OZ63F26htx1GofX7rPfT8eGnxqi/nzsxn7KUcPbhjeHYexexuH9vF++L7sZOUdvw8d8wtfCY0XwM4vc95JJCfybeF7wp/58hw8ObSjxHtKuEzhAtCBozhgKPkJLBWV4WicQUikQHdQSQJQCH9i+EIFiQaAIZxCoReKSIEhiNrVSSLfEQ7wofFkCI4R1vBKEqvODruMTwZV4n2DcPwmkHFmeurcJriw46C3zkNDGWkE8Wm8QGJUpsq0MfC5ZU+k6WyBq3aPcZTVKiNl31UsTsOFr4dpGrcAnw0aEWBGiOef/H38O/jbHoT+dlsVz/7/eNDm1bCne/gA=);strokeWidth=0;spacingTop=-3;spacingBottom=-3;spacingLeft=-3;spacingRight=-3;labelBackgroundColor=none;rounded=0;html=1;whiteSpace=wrap;" vertex="1" parent="LKHoJZJlkah-HH3FBG73-19">
          <mxGeometry width="292" height="215" as="geometry" />
        </mxCell>
        <mxCell id="LKHoJZJlkah-HH3FBG73-23" value="&lt;p style=&quot;align:center;margin-left:0;margin-right:0;margin-top:0px;margin-bottom:0px;text-indent:0;valign:middle;direction:ltr;&quot;&gt;&lt;font style=&quot;font-size:11px;font-family:Arial;color:#000000;direction:ltr;letter-spacing:0px;line-height:100%;opacity:1&quot;&gt;API PORVENIR&lt;br/&gt;YOLOTL&lt;/font&gt;&lt;/p&gt;" style="text;vsdxID=17;fillColor=none;gradientColor=none;strokeColor=none;strokeWidth=0;spacingTop=-3;spacingBottom=-3;spacingLeft=-3;spacingRight=-3;labelBackgroundColor=none;rounded=1;html=1;whiteSpace=wrap;verticalAlign=middle;align=center;;html=1;" vertex="1" parent="LKHoJZJlkah-HH3FBG73-19">
          <mxGeometry x="-19.05" y="220.71" width="330.2" height="22.23" as="geometry" />
        </mxCell>
        <mxCell id="LKHoJZJlkah-HH3FBG73-24" style="vsdxID=21;fillColor=none;gradientColor=none;strokeColor=none;strokeWidth=0;spacingTop=-3;spacingBottom=-3;spacingLeft=-3;spacingRight=-3;labelBackgroundColor=none;rounded=1;html=1;whiteSpace=wrap;" vertex="1" parent="1">
          <mxGeometry x="749" y="12" width="76" height="76" as="geometry" />
        </mxCell>
        <mxCell id="LKHoJZJlkah-HH3FBG73-25" style="vsdxID=22;fillColor=#a0a1a2;gradientColor=none;strokeOpacity=0;shape=stencil(pVfLcsIwDPyaXDO2ZMf2sUPpfzAFSqYUOgFa+vclxHb8IIKEnPxYBXl3pZgCZ4fN4ntVADscm/3n6rdeHjcFvhYA9W6zaurjZVTgvMDZet+sPpr9abfs5t+LFtmOvvY/7RvOXZxgJVdtFLC/bsXgdfrWobf1LkBPRVZsGMmx1Eig309NlzB3eAu2c6m7+RnsPpTSsOABi7f7UvrfO2MQYlF2SWIpeJ8Ge8nzDoJczPAp2UQkZwR1QpW8egaugEBnzhiHjt0Ru04/bg9DeYOEGnTHvYmWJvXd6AAF7tC3A6DU4rkAUk+3OQlMWVDLVMwYnZakrnq8q0oZV6VX3FWhikvQ76Mn21bXUP2RHhrX5GJ0jBQEp0l5jKqlMWCoEmOmAgjoK9sugUjaoOt5VgAhejfbJcCBEMz7B7oQUqO84xBssmlAQVDJMe3RMTr7togezz1PUpvgqWIe/fnASxFSyHjMIdcxga3YFckhZcdnbJ63M7jTnfL+93AvfhyZEJKxod13eTAgFVWlirbFEiqatCpl+p+AOybAPARzo91S1WTnUCT7af8eCSfKKf/qjAIDd7YY4P96lQpLQsR69C/wEkjMmxOnm5MUmQTXkESFLLnqthmo5FRpoidLNL1fhpXjcotr7ZrbZdxf09f1dtvd8j2xl0F6rb8sdX8JcP4P);strokeWidth=2;spacingTop=-3;spacingBottom=-3;spacingLeft=-3;spacingRight=-3;labelBackgroundColor=none;rounded=0;html=1;whiteSpace=wrap;" vertex="1" parent="LKHoJZJlkah-HH3FBG73-24">
          <mxGeometry width="76" height="76" as="geometry" />
        </mxCell>
        <mxCell id="LKHoJZJlkah-HH3FBG73-26" style="vsdxID=23;fillColor=#59b4d9;gradientColor=none;strokeOpacity=0;shape=stencil(hZTbcoIwEIafJrcZks2Jy47V93AqFqYUHMRW377BnBOoXIVl/+zHn80i2F3b46VBtLrO0/jV/HanuUXwjijthraZulmvEOwR7M7j1HxO4204mffLcclcVt/jz7LD3egUwbxeVLR6mAivMSPPyMEIPm6TUZAgUXX0WLn9zDkmwoTu1ISkwpTbLBvi1KaATWGYSJsCScqTonrTIH03ROQSfJ1HKSixdT7PUSv3qwGVpZxMeVVATTmZwAoy1KI4SysDdxpfWSy+rdhqP1OZUnAWPIUkZZuC8cICv60tA+VRAS0sgGgj50LlQtv1ITpk4mV5t+h6KjsFqLVdsTci4yFF9ywS9oKHgt62ih6andJWWYtFZEHKeLYlT0ljiTtJSC7cKmkssyGRde7mz7j+ki89E3kDZTeOYel6oxSsNL0q2k2I0Ev0/3HisCHcUShnlvOwLj3U6zD1zl3fm6HpcfUin5I6ZCYs7P8A);strokeWidth=2;spacingTop=-3;spacingBottom=-3;spacingLeft=-3;spacingRight=-3;labelBackgroundColor=none;rounded=0;html=1;whiteSpace=wrap;" vertex="1" parent="LKHoJZJlkah-HH3FBG73-24">
          <mxGeometry width="76" height="76" as="geometry" />
        </mxCell>
        <mxCell id="LKHoJZJlkah-HH3FBG73-27" style="vsdxID=24;fillColor=#ffffff;gradientColor=none;fillOpacity=20;strokeOpacity=0;shape=stencil(lZRLcsMgDIZP4y0DSDy87KTpPTKNU3uaxhnHadPbF4eHgdhh6hUWv9CHJFTB5tLuzk3F6WUc+s/mp9uPbQWvFefdqW2GbjSrCrYVbA790HwM/fW0t//n3aScVl/993TCzfqBJsgmL05/rUWq+++bVb9fBytnTi+JqJ3emaQgTFrTjTuVMKfS6EPn4vYlOD04PRIlnMSZJPVgdxL6sgQDJvJSGLcvIMNSM7wzoSAa4iNESoYZFqK/7DoWmhzpOvpkioVANKZkqDOsSOIj13OlAkyBRNA0skkAU2lkgYSLNDiwNPJcihCZ61Jk/TwHXBGk8X6OtZZD7v1TRnONB0ZVYLzX/ilj1j7RW/EmHjoq9LIIpQt1ol71pJdx5cmwcMbDK4MMpl6+TyBjDzmaXEpNxDOS1TAOg+W9XHhiQe9LCeWXH3z8DGIpA88HjiqmQubtcuxO/xiUZjHP2EN3PNoRHe/nM9mY7DyH7R8=);strokeWidth=2;spacingTop=-3;spacingBottom=-3;spacingLeft=-3;spacingRight=-3;labelBackgroundColor=none;rounded=0;html=1;whiteSpace=wrap;" vertex="1" parent="LKHoJZJlkah-HH3FBG73-24">
          <mxGeometry width="76" height="76" as="geometry" />
        </mxCell>
        <mxCell id="LKHoJZJlkah-HH3FBG73-28" style="vsdxID=25;fillColor=#000000;gradientColor=none;fillOpacity=0;strokeOpacity=0;shape=stencil(hZPLEsIgDEW/hm0HEmvL0vHxH45Wy1hbB+vr7wVBm6ZVWYWQy9wTiMD5uVyfCgHy3NrmUNzMti0FLgSAqcvCmtZFApcC57vGFnvbXOpt2J/WvtJHx+bqb7gHHSSp8iKQj5BQSapfiVUor0xNynWW5JOf9ZuLDferqMiTaRYVqpNIsjDeeIco0bE+7iEeIzvGN0KWdg7kbGha9xw7Bpn/tKz7fj00MouEqkupKXNKuoW86pvbwYswydCvcg2g/ZTA/BNn8JagwyQrZzAEGT8SZCz9Ro6wEM3YW42hfPGl+l8B/pDDn5+Gg17j2Hd+Ibm4m56dqaowfB8GF/Bpc6kwqbh8Ag==);strokeWidth=0;spacingTop=-3;spacingBottom=-3;spacingLeft=-3;spacingRight=-3;labelBackgroundColor=none;rounded=0;html=1;whiteSpace=wrap;" vertex="1" parent="LKHoJZJlkah-HH3FBG73-24">
          <mxGeometry width="76" height="76" as="geometry" />
        </mxCell>
        <mxCell id="LKHoJZJlkah-HH3FBG73-29" value="&lt;p style=&quot;align:center;margin-left:0;margin-right:0;margin-top:0px;margin-bottom:0px;text-indent:0;valign:middle;direction:ltr;&quot;&gt;&lt;font style=&quot;font-size:11px;font-family:Arial;color:#000000;direction:ltr;letter-spacing:0px;line-height:100%;opacity:1&quot;&gt;Saldos&lt;/font&gt;&lt;/p&gt;" style="text;vsdxID=21;fillColor=none;gradientColor=none;strokeColor=none;strokeWidth=0;spacingTop=-3;spacingBottom=-3;spacingLeft=-3;spacingRight=-3;labelBackgroundColor=none;rounded=1;html=1;whiteSpace=wrap;verticalAlign=middle;align=center;;html=1;" vertex="1" parent="LKHoJZJlkah-HH3FBG73-24">
          <mxGeometry x="-19.05" y="81.71" width="114.3" height="13.34" as="geometry" />
        </mxCell>
        <mxCell id="LKHoJZJlkah-HH3FBG73-30" style="vsdxID=26;fillColor=none;gradientColor=none;fillOpacity=0;strokeColor=none;spacingTop=-3;spacingBottom=-3;spacingLeft=-3;spacingRight=-3;labelBackgroundColor=none;rounded=1;html=1;whiteSpace=wrap;" vertex="1" parent="1">
          <mxGeometry x="891" y="318" width="260" height="177" as="geometry" />
        </mxCell>
        <mxCell id="LKHoJZJlkah-HH3FBG73-31" style="vsdxID=27;fillColor=#ffffff;gradientColor=none;fillOpacity=0;shape=stencil(hVNBcoMwDHyNrx7ZChQfO2n6gb6ACW7xlELGIS3k9SEIikUd6pMlraxdWRK4P5f5yQoN59Y3n/bHFW0p8EVo7erSetcON4EHgfv3xtsP31zqguxTPiA1jB5bUI66ozXk/vjmrpZ8KDMw4UkJRK98Nd/36h1hgUI9WVqq3eh4Jezx4gmsOHo2pUnDOpmheKfneDqV7jV7oMOJvdzNAAwBY3l4HhhUrg7YmkwmCWMMW3SNkZjActSKPmerAOQvRP+jECM5GGtiRAVLmpg+ySzdksJyFnmAXMMjxYtEzj9sKHLMQ/bLn0USIjOzDIFas+BT0eu/upAjMNquCMvtuR4u4zLRmrmqCiPrtRtctLJ4uAE=);strokeColor=#0e76d4;spacingTop=-3;spacingBottom=-3;spacingLeft=-3;spacingRight=-3;labelBackgroundColor=none;rounded=1;html=1;whiteSpace=wrap;" vertex="1" parent="LKHoJZJlkah-HH3FBG73-30">
          <mxGeometry width="260" height="177" as="geometry" />
        </mxCell>
        <mxCell id="LKHoJZJlkah-HH3FBG73-32" style="vsdxID=28;fillColor=#ffffff;gradientColor=none;fillOpacity=0;shape=stencil(tZhZTgMxDIZPM69WEmd9ZrkAJ6joQEdAi4aynp60oRKJhclA8taZ2O4ny8ufGfDsabN6HAclnvbz7m58ndb7zYDng1LTdjPO0z7+GvBiwLOb3Tzezrvn7To9P66ipRLHN+M6+ciDtRKr+fpq+hjTOwEonUkHyfNh93L4x7d07sHqdPr+5XB8uky299P2m6004M3PxksC57YygGYC5xTKgsUeFChAMYFzCnSgZQ8KLUEwgXMK7UGGHhRGgmMC5xSmC4JVYHwtgg3gGOO/UzgErKbwAoztQeE1SFdLESRgfeQFFEFDqG7T4MHUGwdQRZZBBda+KM/YNY6ZXEKUXaVA6kUOseFto3FHg0t1qt9qfgSN3Xiiv5OLeDAA9suP1mCX5ccYQNWNx4qTf3X5yKKim/I4C2ZZ/XsHql9+Qhzey/ITHHj7swft+DhgArIOxUg5hGBqmg6sSMmYk2FYmP9jzpIBzpLQ5dCMhC40loQuy2YkdMGzJFQ8NCMp1A6LQWVUMwwq/VgSKiubkVApzJJQmd2MhF4NWBJ67WhGQq9KfAuXodtVK4gFDSxPGqfKWoDLs/3LhBVlxf4ywkVuzC+IwrjcP3/PYB6YrE2OgmzlVhRETHAURKu0oiASi6MgCq4VBRGeHAXRta0oiBznKIjab1YXxR2FTQV7ASK9yl+wyCjg729kznA7tJxgmW38cfwUdnxIX9G+n5WfzeKr9MkNLz4B);strokeColor=#0e76d4;strokeWidth=2;spacingTop=-3;spacingBottom=-3;spacingLeft=-3;spacingRight=-3;labelBackgroundColor=none;rounded=1;html=1;whiteSpace=wrap;" vertex="1" parent="LKHoJZJlkah-HH3FBG73-30">
          <mxGeometry width="260" height="177" as="geometry" />
        </mxCell>
        <mxCell id="LKHoJZJlkah-HH3FBG73-33" style="vsdxID=29;fillColor=#000000;gradientColor=none;fillOpacity=0;strokeOpacity=0;shape=stencil(pZPBDsIgDIafhqspNPFu5nyPxTEhIixs0/n2Qkh0GxEh3v6Sr+13KASrQTQ9JwyG0Zorf8h2FASPhDGpBbdydIlgTbDqjOUXaybdhrpvPOnTzdz9hDn0ge9g8FxWpwAqqRcgxd0ev8PnyYaxNMbpatXMYoKtCYwJjHbCIcOxWDLDMkPzhycUOELaD9Ju8IdXiVbaKi21dXL5c62dVCoc+1vFhe11u6fwM7B+AQ==);spacingTop=-3;spacingBottom=-3;spacingLeft=-3;spacingRight=-3;labelBackgroundColor=none;rounded=0;html=1;whiteSpace=wrap;" vertex="1" parent="LKHoJZJlkah-HH3FBG73-30">
          <mxGeometry width="260" height="177" as="geometry" />
        </mxCell>
        <mxCell id="LKHoJZJlkah-HH3FBG73-34" style="vsdxID=30;fillColor=#3999c6;gradientColor=none;strokeOpacity=0;shape=stencil(hZTdcoMgEIWfhlsGWOTnspOm75FpTHVqNWNMm759MTTIAqVeIe6R7+wuS2B36Q7nlgh2Webpvf3qj0tH4JkI0Y9dO/eLWxHYE9idprl9m6frePTv58Maua4+ps/1DzevU9TwVSTYt9+wlMv7xosPf73OPp5nAp4o2E08YrT9jRFZDGQxEGL4djJ7cocP/RixArUCsSqqTI0VqDE2fjQmd3odfwZsw8lVUR5sqoZFj8IOnVxjh4o2OnFYQC6fGZAbWTpT/OM4IDcpZMhpgJSqWgZXOYXKICnTtTJEpeZBAbELnvZP6DFRFwRmI7ELzFRwYanGjf9IzR8mXLzMSoGx7ZaYLd2omoCxI0EwotI7UABRKUi5D0VGLup9D1lqtstav5pq6/XSZS6OkaSzS2PEJOClMWISVjzA7qxuvc2/Uz8MfnwGOLdI56Xb8rMW9j8=);spacingTop=-3;spacingBottom=-3;spacingLeft=-3;spacingRight=-3;labelBackgroundColor=none;rounded=0;html=1;whiteSpace=wrap;" vertex="1" parent="LKHoJZJlkah-HH3FBG73-30">
          <mxGeometry width="260" height="177" as="geometry" />
        </mxCell>
        <mxCell id="LKHoJZJlkah-HH3FBG73-35" style="vsdxID=31;fillColor=#59b4d9;gradientColor=none;strokeOpacity=0;shape=stencil(pZTdbsMgDIWfhlsLMD/J5dS171Gt6RItSyqabt3bj4wuBScNmsaVAz7hfJYxw8253p8qJvl5cP1b9dkchprhM5Oy6erKNYOPGG4Zbo69q15df+kO4fu0HzPH6L3/GP9wDToDatRI/hW+hQaOPzu7kP5ycSFfUIGIFDxaIpxf5a8Ai5tCZhQ4U+CiK/7kjbVNF3Eg6JRDghFrHAjKlvHSBEuCtrFJm2I91Mu7HuNzmUJ6PYWUN4bHjJMkbFgw6j+MXs+T878hWtAqrpChhDoFHPMJ4NyxRupRU1e6mPmgN5vszWlpfVen/VNCaTPPwKZGvcKsFNMAbRBOu56US/Bc0xva9AqKct017XKVcz1hTo+X2lbU98JjXSgfdZIdIwqpk9wYUXljPr6PxmPTtmGyThX0AR2lfiuMYdx+Aw==);spacingTop=-3;spacingBottom=-3;spacingLeft=-3;spacingRight=-3;labelBackgroundColor=none;rounded=0;html=1;whiteSpace=wrap;" vertex="1" parent="LKHoJZJlkah-HH3FBG73-30">
          <mxGeometry width="260" height="177" as="geometry" />
        </mxCell>
        <mxCell id="LKHoJZJlkah-HH3FBG73-36" style="vsdxID=32;fillColor=#59b4d9;gradientColor=none;strokeOpacity=0;shape=stencil(pZTBcoMgEIafhisDuwp67KTJe2QaU51azRjTxrcvFKuwMnIoJ0Q+/fYXl+HhXp9vFQNxH4f+o/puLmPN8JUBNF1dDc1oZgyPDA/Xfqjeh/7RXdz17Wx32tln/2Wf8HSc5oAWAjG5BZlz4VZObv/bY3CA/CNkGYwZlx4vvCHd/ScseBG5PUECxxWfCYwKi5e4s6KaGy0kJhkvVaRQzwSJScaLkpi0TRekLUnaggudSBuJuUgGrEglIpVhyUu9K/770sBc83xX3BJ5aG6QzBdXobghpIgUNsE+jitOPkjoGD0ZltpqBt8dt5o5NVNi56T4xGKmilTgCzOvAM8TgdNKLIK+FyRLsYj2U9bJlA2iZOLYA6kl3WQg+1eTAfo3J/sK0LIifcXM10Z6bdrW9eGlDDOhjdcsuaaNxx8=);spacingTop=-3;spacingBottom=-3;spacingLeft=-3;spacingRight=-3;labelBackgroundColor=none;rounded=0;html=1;whiteSpace=wrap;" vertex="1" parent="LKHoJZJlkah-HH3FBG73-30">
          <mxGeometry width="260" height="177" as="geometry" />
        </mxCell>
        <mxCell id="LKHoJZJlkah-HH3FBG73-37" style="vsdxID=33;fillColor=#ffffff;gradientColor=none;fillOpacity=0;strokeOpacity=0;shape=stencil(pZTBcoMgEIafhisDuwp67KTJe2QaU51azRjTxrcvFKuwMnIoJ0Q+/fYXl+HhXp9vFQNxH4f+o/puLmPN8JUBNF1dDc1oZgyPDA/Xfqjeh/7RXdz17Wx32tln/2Wf8HSc5oAWAjG5BZlz4VZObv/bY3CA/CNkGYwZlx4vvCHd/ScseBG5PUECxxWfCYwKi5e4s6KaGy0kJhkvVaRQzwSJScaLkpi0TRekLUnaggudSBuJuUgGrEglIpVhyUu9K/770sBc83xX3BJ5aG6QzBdXobghpIgUNsE+jitOPkjoGD0ZltpqBt8dt5o5NVNi56T4xGKmilTgCzOvAM8TgdNKLIK+FyRLsYj2U9bJlA2iZOLYA6kl3WQg+1eTAfo3J/sK0LIifcXM10Z6bdrW9eGlDDOhjdcsuaaNxx8=);spacingTop=-3;spacingBottom=-3;spacingLeft=-3;spacingRight=-3;labelBackgroundColor=none;rounded=0;html=1;whiteSpace=wrap;" vertex="1" parent="LKHoJZJlkah-HH3FBG73-30">
          <mxGeometry width="260" height="177" as="geometry" />
        </mxCell>
        <mxCell id="LKHoJZJlkah-HH3FBG73-38" style="vsdxID=34;fillColor=#565656;gradientColor=none;strokeOpacity=0;shape=stencil(hZXdUoMwEIWfhtsM2c3vpVPre3QstYy1OLTV+vYGw89miSlXIeHA+ZaTTYWby3H32VRQX6599958t/vrscLnCqA9H5u+vYZRhdsKN4eub9767nbex/vP3fDkMProvoY33KMOhRs0UP/Ee6mFtn8zL/Hx11sfn5eTwOpRIReJ8eTCuH6HWSHpsp++CIse6TqMepz0ZlLgolg81k/B5qk9EyoQqFIsJdCXsEBIYFhKQE1tqRRLCq8ZSCD1NblMCkIUOCuorQwJ0cQJI0CWQIhgnNHCAXVlUw5CDpNAYU6Aq+LiJIDy/yC/ME4oIYsUSyzHCVZ8FN6UMqVEnY0kzss2RVBrBO4peFbMlFC6kJDwFc9tWUkr63jSveK2HDxIupFJZbXwxf0LQrPSmorlQScea5YOE8pAlyVPh5YpQ5rYLINOGdi2yELkPcr5BXpFxdtOCKWif28FYhiInGP8f879qu9YVyIhGVn6jodCOyUxXBqodIUNu057UOCjuAcWl91ipO3zTelShV35zB8Uc/wzfd4ym2G8nGWH9nSKR+Fc4DDgZ1+Yiucmbn8B);spacingTop=-3;spacingBottom=-3;spacingLeft=-3;spacingRight=-3;labelBackgroundColor=none;rounded=0;html=1;whiteSpace=wrap;" vertex="1" parent="LKHoJZJlkah-HH3FBG73-30">
          <mxGeometry width="260" height="177" as="geometry" />
        </mxCell>
        <mxCell id="LKHoJZJlkah-HH3FBG73-39" style="vsdxID=35;fillColor=#565656;gradientColor=none;strokeOpacity=0;shape=stencil(hZXdcsIgEIWfhluG5S/hsmPtezg11kyt6URt9e1LBtzAkpJc4cqXnAOHhanN5bj77pgUl+s4fHa//f56ZOqVSdmfj93YX/2IqS1Tm8Mwdh/jcDvvw+/v3TRzGn0NP9Mb7oFzvFUTJMUjFDQXofAWpr/fxjAfEGhc+kQaZlwkD4S/7/JJu1h5SARs+rqo5q4QMBFQTwBgFihevMZTf04sAXDpMk+GS1Pz5AkDuQ/DdeajyX14wra5EcNbuUSokogly+WqE2RiRXHlVqwgAsg0LlVmCy+GbApoLkW6K7owg0usEEmVLbhJtjIihle3JckmIGE1I4myloj3r61Hylii3XBliPZSjHaFGGgrGfHf0cWyOllVRiPiiaZdy4iQNCO2ra3rhBhGM2J1qoycW4+AJGZU3L00FThJLeZ1WT/k+vNjsSgfCXgioCtdJzUcS7aQLoh0w12zkmdyOLXvAPU8YyCwWzaQ6m5pgjBz2C21qZzLMto6a33/JNsWsiA7/Y7KajSVtdz1URYeZDUDRJYfz5fUoT+dwh2Hq+kH9FLzpXAhqu0f);spacingTop=-3;spacingBottom=-3;spacingLeft=-3;spacingRight=-3;labelBackgroundColor=none;rounded=0;html=1;whiteSpace=wrap;" vertex="1" parent="LKHoJZJlkah-HH3FBG73-30">
          <mxGeometry width="260" height="177" as="geometry" />
        </mxCell>
        <mxCell id="LKHoJZJlkah-HH3FBG73-40" value="&lt;p style=&quot;align:center;margin-left:0;margin-right:0;margin-top:0px;margin-bottom:0px;text-indent:0;valign:middle;direction:ltr;&quot;&gt;&lt;font style=&quot;font-size:11px;font-family:Arial;color:#000000;direction:ltr;letter-spacing:0px;line-height:100%;opacity:1&quot;&gt;Repositorio de Base de Datos&lt;/font&gt;&lt;/p&gt;" style="text;vsdxID=26;fillColor=none;gradientColor=none;fillOpacity=0;strokeColor=none;spacingTop=-3;spacingBottom=-3;spacingLeft=-3;spacingRight=-3;labelBackgroundColor=none;rounded=1;html=1;whiteSpace=wrap;verticalAlign=middle;align=center;;html=1;" vertex="1" parent="LKHoJZJlkah-HH3FBG73-30">
          <mxGeometry x="48.26" y="11.9" width="200.03" height="12.7" as="geometry" />
        </mxCell>
        <mxCell id="LKHoJZJlkah-HH3FBG73-41" style="vsdxID=36;fillColor=none;gradientColor=none;strokeColor=none;strokeWidth=0;spacingTop=-3;spacingBottom=-3;spacingLeft=-3;spacingRight=-3;labelBackgroundColor=none;rounded=1;html=1;whiteSpace=wrap;" vertex="1" parent="1">
          <mxGeometry x="927" y="76" width="190" height="190" as="geometry" />
        </mxCell>
        <mxCell id="LKHoJZJlkah-HH3FBG73-42" style="vsdxID=37;fillColor=#0072c6;gradientColor=none;strokeOpacity=0;shape=stencil(rZbNDoIwEISfptemtIp4Rn0PEkAaEQji39sLaUTomk236a0tX8nMZJosU+mtyrqCSXEb+vZSPHU+VEwdmJS6qYpeD+OKqSNTadn2xblv701u9l02kdPq2j6mP7zMPTHdkOK93J0MWOtmAcqE773Z+eAvLrzZlYa1MbXh0lVvvOWJN4vrBTKIOOLQOYpdxCNXe5FwboSN4s6ACCIeIog1OGft1mEiHisMF96sLcMzClA03B5oPRHHHQIxRDxQJqBzuEm7/zQatwikEPFAiViSE76hvAAa/g3I4Q0QUFtEqOeCm4P9p+GoQaCFRgdKBDYUtQjqT6JRh0AJjbaVjIvfsFTqujaz1vK7PVyNR2YwU8cP);strokeWidth=2;spacingTop=-3;spacingBottom=-3;spacingLeft=-3;spacingRight=-3;labelBackgroundColor=none;rounded=0;html=1;whiteSpace=wrap;" vertex="1" parent="LKHoJZJlkah-HH3FBG73-41">
          <mxGeometry width="190" height="190" as="geometry" />
        </mxCell>
        <mxCell id="LKHoJZJlkah-HH3FBG73-43" style="vsdxID=38;fillColor=#000000;gradientColor=none;fillOpacity=0;strokeOpacity=0;shape=stencil(pZPdEoIgEIWfhltHoB+9bMzew0lMJpMGteztg3CARMUprpb1HOY74y7ASVNmdwJQ2LScXcmT5m0J8BEgROuScNqKCuAU4KRgnFw46+pc3e+ZVMrqxh7yhV75YICkB4Uvfd99GielrmhtqeMo2G8W9eeOq+eh5QjNgYMbavs2ts7wuUfLbrTsxi4tnsINDysSik70R0JtXxvKMszn+IaayDH+r74URj/LbSSzpEbyK6dvnhxOzwQ50J6ZcRJMTIyozToVtKrUNmpmUYzXT7TU6uL0DQ==);strokeWidth=0;spacingTop=-3;spacingBottom=-3;spacingLeft=-3;spacingRight=-3;labelBackgroundColor=none;rounded=0;html=1;whiteSpace=wrap;" vertex="1" parent="LKHoJZJlkah-HH3FBG73-41">
          <mxGeometry width="190" height="190" as="geometry" />
        </mxCell>
        <mxCell id="LKHoJZJlkah-HH3FBG73-44" value="&lt;p style=&quot;align:center;margin-left:0;margin-right:0;margin-top:0px;margin-bottom:0px;text-indent:0;valign:middle;direction:ltr;&quot;&gt;&lt;font style=&quot;font-size:11px;font-family:Arial;color:#000000;direction:ltr;letter-spacing:0px;line-height:100%;opacity:1&quot;&gt;ISILOANS&lt;/font&gt;&lt;/p&gt;" style="text;vsdxID=36;fillColor=none;gradientColor=none;strokeColor=none;strokeWidth=0;spacingTop=-3;spacingBottom=-3;spacingLeft=-3;spacingRight=-3;labelBackgroundColor=none;rounded=1;html=1;whiteSpace=wrap;verticalAlign=middle;align=center;;html=1;" vertex="1" parent="LKHoJZJlkah-HH3FBG73-41">
          <mxGeometry x="-19.05" y="195.71" width="228.6" height="13.34" as="geometry" />
        </mxCell>
        <mxCell id="LKHoJZJlkah-HH3FBG73-45" style="vsdxID=39;fillColor=none;gradientColor=none;strokeColor=none;strokeWidth=0;spacingTop=-3;spacingBottom=-3;spacingLeft=-3;spacingRight=-3;labelBackgroundColor=none;rounded=1;html=1;whiteSpace=wrap;" vertex="1" parent="1">
          <mxGeometry x="927" y="558" width="190" height="190" as="geometry" />
        </mxCell>
        <mxCell id="LKHoJZJlkah-HH3FBG73-46" style="vsdxID=40;fillColor=#0072c6;gradientColor=none;strokeOpacity=0;shape=stencil(rZbNDoIwEISfptemtIp4Rn0PEkAaEQji39sLaUTomk236a0tX8nMZJosU+mtyrqCSXEb+vZSPHU+VEwdmJS6qYpeD+OKqSNTadn2xblv701u9l02kdPq2j6mP7zMPTHdkOK93J0MWOtmAcqE773Z+eAvLrzZlYa1MbXh0lVvvOWJN4vrBTKIOOLQOYpdxCNXe5FwboSN4s6ACCIeIog1OGft1mEiHisMF96sLcMzClA03B5oPRHHHQIxRDxQJqBzuEm7/zQatwikEPFAiViSE76hvAAa/g3I4Q0QUFtEqOeCm4P9p+GoQaCFRgdKBDYUtQjqT6JRh0AJjbaVjIvfsFTqujaz1vK7PVyNR2YwU8cP);strokeWidth=2;spacingTop=-3;spacingBottom=-3;spacingLeft=-3;spacingRight=-3;labelBackgroundColor=none;rounded=0;html=1;whiteSpace=wrap;" vertex="1" parent="LKHoJZJlkah-HH3FBG73-45">
          <mxGeometry width="190" height="190" as="geometry" />
        </mxCell>
        <mxCell id="LKHoJZJlkah-HH3FBG73-47" style="vsdxID=41;fillColor=#000000;gradientColor=none;fillOpacity=0;strokeOpacity=0;shape=stencil(pZPdEoIgEIWfhltHoB+9bMzew0lMJpMGteztg3CARMUprpb1HOY74y7ASVNmdwJQ2LScXcmT5m0J8BEgROuScNqKCuAU4KRgnFw46+pc3e+ZVMrqxh7yhV75YICkB4Uvfd99GielrmhtqeMo2G8W9eeOq+eh5QjNgYMbavs2ts7wuUfLbrTsxi4tnsINDysSik70R0JtXxvKMszn+IaayDH+r74URj/LbSSzpEbyK6dvnhxOzwQ50J6ZcRJMTIyozToVtKrUNmpmUYzXT7TU6uL0DQ==);strokeWidth=0;spacingTop=-3;spacingBottom=-3;spacingLeft=-3;spacingRight=-3;labelBackgroundColor=none;rounded=0;html=1;whiteSpace=wrap;" vertex="1" parent="LKHoJZJlkah-HH3FBG73-45">
          <mxGeometry width="190" height="190" as="geometry" />
        </mxCell>
        <mxCell id="LKHoJZJlkah-HH3FBG73-48" value="&lt;p style=&quot;align:center;margin-left:0;margin-right:0;margin-top:0px;margin-bottom:0px;text-indent:0;valign:middle;direction:ltr;&quot;&gt;&lt;font style=&quot;font-size:11px;font-family:Arial;color:#000000;direction:ltr;letter-spacing:0px;line-height:100%;opacity:1&quot;&gt;APP&amp;prime;s PORVENIR&lt;/font&gt;&lt;/p&gt;" style="text;vsdxID=39;fillColor=none;gradientColor=none;strokeColor=none;strokeWidth=0;spacingTop=-3;spacingBottom=-3;spacingLeft=-3;spacingRight=-3;labelBackgroundColor=none;rounded=1;html=1;whiteSpace=wrap;verticalAlign=middle;align=center;;html=1;" vertex="1" parent="LKHoJZJlkah-HH3FBG73-45">
          <mxGeometry x="-19.05" y="195.71" width="228.6" height="13.34" as="geometry" />
        </mxCell>
        <mxCell id="LKHoJZJlkah-HH3FBG73-49" style="vsdxID=42;fillColor=none;gradientColor=none;strokeColor=none;strokeWidth=0;spacingTop=-3;spacingBottom=-3;spacingLeft=-3;spacingRight=-3;labelBackgroundColor=none;rounded=1;html=1;whiteSpace=wrap;" vertex="1" parent="1">
          <mxGeometry x="749" y="139" width="76" height="76" as="geometry" />
        </mxCell>
        <mxCell id="LKHoJZJlkah-HH3FBG73-50" style="vsdxID=43;fillColor=#a0a1a2;gradientColor=none;strokeOpacity=0;shape=stencil(pVfLcsIwDPyaXDO2ZMf2sUPpfzAFSqYUOgFa+vclxHb8IIKEnPxYBXl3pZgCZ4fN4ntVADscm/3n6rdeHjcFvhYA9W6zaurjZVTgvMDZet+sPpr9abfs5t+LFtmOvvY/7RvOXZxgJVdtFLC/bsXgdfrWobf1LkBPRVZsGMmx1Eig309NlzB3eAu2c6m7+RnsPpTSsOABi7f7UvrfO2MQYlF2SWIpeJ8Ge8nzDoJczPAp2UQkZwR1QpW8egaugEBnzhiHjt0Ru04/bg9DeYOEGnTHvYmWJvXd6AAF7tC3A6DU4rkAUk+3OQlMWVDLVMwYnZakrnq8q0oZV6VX3FWhikvQ76Mn21bXUP2RHhrX5GJ0jBQEp0l5jKqlMWCoEmOmAgjoK9sugUjaoOt5VgAhejfbJcCBEMz7B7oQUqO84xBssmlAQVDJMe3RMTr7togezz1PUpvgqWIe/fnASxFSyHjMIdcxga3YFckhZcdnbJ63M7jTnfL+93AvfhyZEJKxod13eTAgFVWlirbFEiqatCpl+p+AOybAPARzo91S1WTnUCT7af8eCSfKKf/qjAIDd7YY4P96lQpLQsR69C/wEkjMmxOnm5MUmQTXkESFLLnqthmo5FRpoidLNL1fhpXjcotr7ZrbZdxf09f1dtvd8j2xl0F6rb8sdX8JcP4P);strokeWidth=2;spacingTop=-3;spacingBottom=-3;spacingLeft=-3;spacingRight=-3;labelBackgroundColor=none;rounded=0;html=1;whiteSpace=wrap;" vertex="1" parent="LKHoJZJlkah-HH3FBG73-49">
          <mxGeometry width="76" height="76" as="geometry" />
        </mxCell>
        <mxCell id="LKHoJZJlkah-HH3FBG73-51" style="vsdxID=44;fillColor=#59b4d9;gradientColor=none;strokeOpacity=0;shape=stencil(hZTbcoIwEIafJrcZks2Jy47V93AqFqYUHMRW377BnBOoXIVl/+zHn80i2F3b46VBtLrO0/jV/HanuUXwjijthraZulmvEOwR7M7j1HxO4204mffLcclcVt/jz7LD3egUwbxeVLR6mAivMSPPyMEIPm6TUZAgUXX0WLn9zDkmwoTu1ISkwpTbLBvi1KaATWGYSJsCScqTonrTIH03ROQSfJ1HKSixdT7PUSv3qwGVpZxMeVVATTmZwAoy1KI4SysDdxpfWSy+rdhqP1OZUnAWPIUkZZuC8cICv60tA+VRAS0sgGgj50LlQtv1ITpk4mV5t+h6KjsFqLVdsTci4yFF9ywS9oKHgt62ih6andJWWYtFZEHKeLYlT0ljiTtJSC7cKmkssyGRde7mz7j+ki89E3kDZTeOYel6oxSsNL0q2k2I0Ev0/3HisCHcUShnlvOwLj3U6zD1zl3fm6HpcfUin5I6ZCYs7P8A);strokeWidth=2;spacingTop=-3;spacingBottom=-3;spacingLeft=-3;spacingRight=-3;labelBackgroundColor=none;rounded=0;html=1;whiteSpace=wrap;" vertex="1" parent="LKHoJZJlkah-HH3FBG73-49">
          <mxGeometry width="76" height="76" as="geometry" />
        </mxCell>
        <mxCell id="LKHoJZJlkah-HH3FBG73-52" style="vsdxID=45;fillColor=#ffffff;gradientColor=none;fillOpacity=20;strokeOpacity=0;shape=stencil(lZRLcsMgDIZP4y0DSDy87KTpPTKNU3uaxhnHadPbF4eHgdhh6hUWv9CHJFTB5tLuzk3F6WUc+s/mp9uPbQWvFefdqW2GbjSrCrYVbA790HwM/fW0t//n3aScVl/993TCzfqBJsgmL05/rUWq+++bVb9fBytnTi+JqJ3emaQgTFrTjTuVMKfS6EPn4vYlOD04PRIlnMSZJPVgdxL6sgQDJvJSGLcvIMNSM7wzoSAa4iNESoYZFqK/7DoWmhzpOvpkioVANKZkqDOsSOIj13OlAkyBRNA0skkAU2lkgYSLNDiwNPJcihCZ61Jk/TwHXBGk8X6OtZZD7v1TRnONB0ZVYLzX/ilj1j7RW/EmHjoq9LIIpQt1ol71pJdx5cmwcMbDK4MMpl6+TyBjDzmaXEpNxDOS1TAOg+W9XHhiQe9LCeWXH3z8DGIpA88HjiqmQubtcuxO/xiUZjHP2EN3PNoRHe/nM9mY7DyH7R8=);strokeWidth=2;spacingTop=-3;spacingBottom=-3;spacingLeft=-3;spacingRight=-3;labelBackgroundColor=none;rounded=0;html=1;whiteSpace=wrap;" vertex="1" parent="LKHoJZJlkah-HH3FBG73-49">
          <mxGeometry width="76" height="76" as="geometry" />
        </mxCell>
        <mxCell id="LKHoJZJlkah-HH3FBG73-53" style="vsdxID=46;fillColor=#000000;gradientColor=none;fillOpacity=0;strokeOpacity=0;shape=stencil(hZPLEsIgDEW/hm0HEmvL0vHxH45Wy1hbB+vr7wVBm6ZVWYWQy9wTiMD5uVyfCgHy3NrmUNzMti0FLgSAqcvCmtZFApcC57vGFnvbXOpt2J/WvtJHx+bqb7gHHSSp8iKQj5BQSapfiVUor0xNynWW5JOf9ZuLDferqMiTaRYVqpNIsjDeeIco0bE+7iEeIzvGN0KWdg7kbGha9xw7Bpn/tKz7fj00MouEqkupKXNKuoW86pvbwYswydCvcg2g/ZTA/BNn8JagwyQrZzAEGT8SZCz9Ro6wEM3YW42hfPGl+l8B/pDDn5+Gg17j2Hd+Ibm4m56dqaowfB8GF/Bpc6kwqbh8Ag==);strokeWidth=0;spacingTop=-3;spacingBottom=-3;spacingLeft=-3;spacingRight=-3;labelBackgroundColor=none;rounded=0;html=1;whiteSpace=wrap;" vertex="1" parent="LKHoJZJlkah-HH3FBG73-49">
          <mxGeometry width="76" height="76" as="geometry" />
        </mxCell>
        <mxCell id="LKHoJZJlkah-HH3FBG73-54" value="&lt;p style=&quot;align:center;margin-left:0;margin-right:0;margin-top:0px;margin-bottom:0px;text-indent:0;valign:middle;direction:ltr;&quot;&gt;&lt;font style=&quot;font-size:11px;font-family:Arial;color:#000000;direction:ltr;letter-spacing:0px;line-height:100%;opacity:1&quot;&gt;Pagos&lt;/font&gt;&lt;/p&gt;" style="text;vsdxID=42;fillColor=none;gradientColor=none;strokeColor=none;strokeWidth=0;spacingTop=-3;spacingBottom=-3;spacingLeft=-3;spacingRight=-3;labelBackgroundColor=none;rounded=1;html=1;whiteSpace=wrap;verticalAlign=middle;align=center;;html=1;" vertex="1" parent="LKHoJZJlkah-HH3FBG73-49">
          <mxGeometry x="-19.05" y="81.71" width="114.3" height="13.34" as="geometry" />
        </mxCell>
        <mxCell id="LKHoJZJlkah-HH3FBG73-55" style="vsdxID=47;fillColor=none;gradientColor=none;strokeColor=none;strokeWidth=0;spacingTop=-3;spacingBottom=-3;spacingLeft=-3;spacingRight=-3;labelBackgroundColor=none;rounded=1;html=1;whiteSpace=wrap;" vertex="1" parent="1">
          <mxGeometry x="749" y="266" width="76" height="76" as="geometry" />
        </mxCell>
        <mxCell id="LKHoJZJlkah-HH3FBG73-56" style="vsdxID=48;fillColor=#a0a1a2;gradientColor=none;strokeOpacity=0;shape=stencil(pVfLcsIwDPyaXDO2ZMf2sUPpfzAFSqYUOgFa+vclxHb8IIKEnPxYBXl3pZgCZ4fN4ntVADscm/3n6rdeHjcFvhYA9W6zaurjZVTgvMDZet+sPpr9abfs5t+LFtmOvvY/7RvOXZxgJVdtFLC/bsXgdfrWobf1LkBPRVZsGMmx1Eig309NlzB3eAu2c6m7+RnsPpTSsOABi7f7UvrfO2MQYlF2SWIpeJ8Ge8nzDoJczPAp2UQkZwR1QpW8egaugEBnzhiHjt0Ru04/bg9DeYOEGnTHvYmWJvXd6AAF7tC3A6DU4rkAUk+3OQlMWVDLVMwYnZakrnq8q0oZV6VX3FWhikvQ76Mn21bXUP2RHhrX5GJ0jBQEp0l5jKqlMWCoEmOmAgjoK9sugUjaoOt5VgAhejfbJcCBEMz7B7oQUqO84xBssmlAQVDJMe3RMTr7togezz1PUpvgqWIe/fnASxFSyHjMIdcxga3YFckhZcdnbJ63M7jTnfL+93AvfhyZEJKxod13eTAgFVWlirbFEiqatCpl+p+AOybAPARzo91S1WTnUCT7af8eCSfKKf/qjAIDd7YY4P96lQpLQsR69C/wEkjMmxOnm5MUmQTXkESFLLnqthmo5FRpoidLNL1fhpXjcotr7ZrbZdxf09f1dtvd8j2xl0F6rb8sdX8JcP4P);strokeWidth=2;spacingTop=-3;spacingBottom=-3;spacingLeft=-3;spacingRight=-3;labelBackgroundColor=none;rounded=0;html=1;whiteSpace=wrap;" vertex="1" parent="LKHoJZJlkah-HH3FBG73-55">
          <mxGeometry width="76" height="76" as="geometry" />
        </mxCell>
        <mxCell id="LKHoJZJlkah-HH3FBG73-57" style="vsdxID=49;fillColor=#59b4d9;gradientColor=none;strokeOpacity=0;shape=stencil(hZTbcoIwEIafJrcZks2Jy47V93AqFqYUHMRW377BnBOoXIVl/+zHn80i2F3b46VBtLrO0/jV/HanuUXwjijthraZulmvEOwR7M7j1HxO4204mffLcclcVt/jz7LD3egUwbxeVLR6mAivMSPPyMEIPm6TUZAgUXX0WLn9zDkmwoTu1ISkwpTbLBvi1KaATWGYSJsCScqTonrTIH03ROQSfJ1HKSixdT7PUSv3qwGVpZxMeVVATTmZwAoy1KI4SysDdxpfWSy+rdhqP1OZUnAWPIUkZZuC8cICv60tA+VRAS0sgGgj50LlQtv1ITpk4mV5t+h6KjsFqLVdsTci4yFF9ywS9oKHgt62ih6andJWWYtFZEHKeLYlT0ljiTtJSC7cKmkssyGRde7mz7j+ki89E3kDZTeOYel6oxSsNL0q2k2I0Ev0/3HisCHcUShnlvOwLj3U6zD1zl3fm6HpcfUin5I6ZCYs7P8A);strokeWidth=2;spacingTop=-3;spacingBottom=-3;spacingLeft=-3;spacingRight=-3;labelBackgroundColor=none;rounded=0;html=1;whiteSpace=wrap;" vertex="1" parent="LKHoJZJlkah-HH3FBG73-55">
          <mxGeometry width="76" height="76" as="geometry" />
        </mxCell>
        <mxCell id="LKHoJZJlkah-HH3FBG73-58" style="vsdxID=50;fillColor=#ffffff;gradientColor=none;fillOpacity=20;strokeOpacity=0;shape=stencil(lZRLcsMgDIZP4y0DSDy87KTpPTKNU3uaxhnHadPbF4eHgdhh6hUWv9CHJFTB5tLuzk3F6WUc+s/mp9uPbQWvFefdqW2GbjSrCrYVbA790HwM/fW0t//n3aScVl/993TCzfqBJsgmL05/rUWq+++bVb9fBytnTi+JqJ3emaQgTFrTjTuVMKfS6EPn4vYlOD04PRIlnMSZJPVgdxL6sgQDJvJSGLcvIMNSM7wzoSAa4iNESoYZFqK/7DoWmhzpOvpkioVANKZkqDOsSOIj13OlAkyBRNA0skkAU2lkgYSLNDiwNPJcihCZ61Jk/TwHXBGk8X6OtZZD7v1TRnONB0ZVYLzX/ilj1j7RW/EmHjoq9LIIpQt1ol71pJdx5cmwcMbDK4MMpl6+TyBjDzmaXEpNxDOS1TAOg+W9XHhiQe9LCeWXH3z8DGIpA88HjiqmQubtcuxO/xiUZjHP2EN3PNoRHe/nM9mY7DyH7R8=);strokeWidth=2;spacingTop=-3;spacingBottom=-3;spacingLeft=-3;spacingRight=-3;labelBackgroundColor=none;rounded=0;html=1;whiteSpace=wrap;" vertex="1" parent="LKHoJZJlkah-HH3FBG73-55">
          <mxGeometry width="76" height="76" as="geometry" />
        </mxCell>
        <mxCell id="LKHoJZJlkah-HH3FBG73-59" style="vsdxID=51;fillColor=#000000;gradientColor=none;fillOpacity=0;strokeOpacity=0;shape=stencil(hZPLEsIgDEW/hm0HEmvL0vHxH45Wy1hbB+vr7wVBm6ZVWYWQy9wTiMD5uVyfCgHy3NrmUNzMti0FLgSAqcvCmtZFApcC57vGFnvbXOpt2J/WvtJHx+bqb7gHHSSp8iKQj5BQSapfiVUor0xNynWW5JOf9ZuLDferqMiTaRYVqpNIsjDeeIco0bE+7iEeIzvGN0KWdg7kbGha9xw7Bpn/tKz7fj00MouEqkupKXNKuoW86pvbwYswydCvcg2g/ZTA/BNn8JagwyQrZzAEGT8SZCz9Ro6wEM3YW42hfPGl+l8B/pDDn5+Gg17j2Hd+Ibm4m56dqaowfB8GF/Bpc6kwqbh8Ag==);strokeWidth=0;spacingTop=-3;spacingBottom=-3;spacingLeft=-3;spacingRight=-3;labelBackgroundColor=none;rounded=0;html=1;whiteSpace=wrap;" vertex="1" parent="LKHoJZJlkah-HH3FBG73-55">
          <mxGeometry width="76" height="76" as="geometry" />
        </mxCell>
        <mxCell id="LKHoJZJlkah-HH3FBG73-60" value="&lt;p style=&quot;align:center;margin-left:0;margin-right:0;margin-top:0px;margin-bottom:0px;text-indent:0;valign:middle;direction:ltr;&quot;&gt;&lt;font style=&quot;font-size:11px;font-family:Arial;color:#000000;direction:ltr;letter-spacing:0px;line-height:100%;opacity:1&quot;&gt;Disposiciones&lt;/font&gt;&lt;/p&gt;" style="text;vsdxID=47;fillColor=none;gradientColor=none;strokeColor=none;strokeWidth=0;spacingTop=-3;spacingBottom=-3;spacingLeft=-3;spacingRight=-3;labelBackgroundColor=none;rounded=1;html=1;whiteSpace=wrap;verticalAlign=middle;align=center;;html=1;" vertex="1" parent="LKHoJZJlkah-HH3FBG73-55">
          <mxGeometry x="-19.05" y="81.71" width="114.3" height="13.34" as="geometry" />
        </mxCell>
        <mxCell id="LKHoJZJlkah-HH3FBG73-61" style="vsdxID=52;fillColor=none;gradientColor=none;strokeColor=none;strokeWidth=0;spacingTop=-3;spacingBottom=-3;spacingLeft=-3;spacingRight=-3;labelBackgroundColor=none;rounded=1;html=1;whiteSpace=wrap;" vertex="1" parent="1">
          <mxGeometry x="749" y="615" width="76" height="76" as="geometry" />
        </mxCell>
        <mxCell id="LKHoJZJlkah-HH3FBG73-62" style="vsdxID=53;fillColor=#a0a1a2;gradientColor=none;strokeOpacity=0;shape=stencil(pVfLcsIwDPyaXDO2ZMf2sUPpfzAFSqYUOgFa+vclxHb8IIKEnPxYBXl3pZgCZ4fN4ntVADscm/3n6rdeHjcFvhYA9W6zaurjZVTgvMDZet+sPpr9abfs5t+LFtmOvvY/7RvOXZxgJVdtFLC/bsXgdfrWobf1LkBPRVZsGMmx1Eig309NlzB3eAu2c6m7+RnsPpTSsOABi7f7UvrfO2MQYlF2SWIpeJ8Ge8nzDoJczPAp2UQkZwR1QpW8egaugEBnzhiHjt0Ru04/bg9DeYOEGnTHvYmWJvXd6AAF7tC3A6DU4rkAUk+3OQlMWVDLVMwYnZakrnq8q0oZV6VX3FWhikvQ76Mn21bXUP2RHhrX5GJ0jBQEp0l5jKqlMWCoEmOmAgjoK9sugUjaoOt5VgAhejfbJcCBEMz7B7oQUqO84xBssmlAQVDJMe3RMTr7togezz1PUpvgqWIe/fnASxFSyHjMIdcxga3YFckhZcdnbJ63M7jTnfL+93AvfhyZEJKxod13eTAgFVWlirbFEiqatCpl+p+AOybAPARzo91S1WTnUCT7af8eCSfKKf/qjAIDd7YY4P96lQpLQsR69C/wEkjMmxOnm5MUmQTXkESFLLnqthmo5FRpoidLNL1fhpXjcotr7ZrbZdxf09f1dtvd8j2xl0F6rb8sdX8JcP4P);strokeWidth=2;spacingTop=-3;spacingBottom=-3;spacingLeft=-3;spacingRight=-3;labelBackgroundColor=none;rounded=0;html=1;whiteSpace=wrap;" vertex="1" parent="LKHoJZJlkah-HH3FBG73-61">
          <mxGeometry width="76" height="76" as="geometry" />
        </mxCell>
        <mxCell id="LKHoJZJlkah-HH3FBG73-63" style="vsdxID=54;fillColor=#59b4d9;gradientColor=none;strokeOpacity=0;shape=stencil(hZTbcoIwEIafJrcZks2Jy47V93AqFqYUHMRW377BnBOoXIVl/+zHn80i2F3b46VBtLrO0/jV/HanuUXwjijthraZulmvEOwR7M7j1HxO4204mffLcclcVt/jz7LD3egUwbxeVLR6mAivMSPPyMEIPm6TUZAgUXX0WLn9zDkmwoTu1ISkwpTbLBvi1KaATWGYSJsCScqTonrTIH03ROQSfJ1HKSixdT7PUSv3qwGVpZxMeVVATTmZwAoy1KI4SysDdxpfWSy+rdhqP1OZUnAWPIUkZZuC8cICv60tA+VRAS0sgGgj50LlQtv1ITpk4mV5t+h6KjsFqLVdsTci4yFF9ywS9oKHgt62ih6andJWWYtFZEHKeLYlT0ljiTtJSC7cKmkssyGRde7mz7j+ki89E3kDZTeOYel6oxSsNL0q2k2I0Ev0/3HisCHcUShnlvOwLj3U6zD1zl3fm6HpcfUin5I6ZCYs7P8A);strokeWidth=2;spacingTop=-3;spacingBottom=-3;spacingLeft=-3;spacingRight=-3;labelBackgroundColor=none;rounded=0;html=1;whiteSpace=wrap;" vertex="1" parent="LKHoJZJlkah-HH3FBG73-61">
          <mxGeometry width="76" height="76" as="geometry" />
        </mxCell>
        <mxCell id="LKHoJZJlkah-HH3FBG73-64" style="vsdxID=55;fillColor=#ffffff;gradientColor=none;fillOpacity=20;strokeOpacity=0;shape=stencil(lZRLcsMgDIZP4y0DSDy87KTpPTKNU3uaxhnHadPbF4eHgdhh6hUWv9CHJFTB5tLuzk3F6WUc+s/mp9uPbQWvFefdqW2GbjSrCrYVbA790HwM/fW0t//n3aScVl/993TCzfqBJsgmL05/rUWq+++bVb9fBytnTi+JqJ3emaQgTFrTjTuVMKfS6EPn4vYlOD04PRIlnMSZJPVgdxL6sgQDJvJSGLcvIMNSM7wzoSAa4iNESoYZFqK/7DoWmhzpOvpkioVANKZkqDOsSOIj13OlAkyBRNA0skkAU2lkgYSLNDiwNPJcihCZ61Jk/TwHXBGk8X6OtZZD7v1TRnONB0ZVYLzX/ilj1j7RW/EmHjoq9LIIpQt1ol71pJdx5cmwcMbDK4MMpl6+TyBjDzmaXEpNxDOS1TAOg+W9XHhiQe9LCeWXH3z8DGIpA88HjiqmQubtcuxO/xiUZjHP2EN3PNoRHe/nM9mY7DyH7R8=);strokeWidth=2;spacingTop=-3;spacingBottom=-3;spacingLeft=-3;spacingRight=-3;labelBackgroundColor=none;rounded=0;html=1;whiteSpace=wrap;" vertex="1" parent="LKHoJZJlkah-HH3FBG73-61">
          <mxGeometry width="76" height="76" as="geometry" />
        </mxCell>
        <mxCell id="LKHoJZJlkah-HH3FBG73-65" style="vsdxID=56;fillColor=#000000;gradientColor=none;fillOpacity=0;strokeOpacity=0;shape=stencil(hZPLEsIgDEW/hm0HEmvL0vHxH45Wy1hbB+vr7wVBm6ZVWYWQy9wTiMD5uVyfCgHy3NrmUNzMti0FLgSAqcvCmtZFApcC57vGFnvbXOpt2J/WvtJHx+bqb7gHHSSp8iKQj5BQSapfiVUor0xNynWW5JOf9ZuLDferqMiTaRYVqpNIsjDeeIco0bE+7iEeIzvGN0KWdg7kbGha9xw7Bpn/tKz7fj00MouEqkupKXNKuoW86pvbwYswydCvcg2g/ZTA/BNn8JagwyQrZzAEGT8SZCz9Ro6wEM3YW42hfPGl+l8B/pDDn5+Gg17j2Hd+Ibm4m56dqaowfB8GF/Bpc6kwqbh8Ag==);strokeWidth=0;spacingTop=-3;spacingBottom=-3;spacingLeft=-3;spacingRight=-3;labelBackgroundColor=none;rounded=0;html=1;whiteSpace=wrap;" vertex="1" parent="LKHoJZJlkah-HH3FBG73-61">
          <mxGeometry width="76" height="76" as="geometry" />
        </mxCell>
        <mxCell id="LKHoJZJlkah-HH3FBG73-66" value="&lt;p style=&quot;align:center;margin-left:0;margin-right:0;margin-top:0px;margin-bottom:0px;text-indent:0;valign:middle;direction:ltr;&quot;&gt;&lt;font style=&quot;font-size:11px;font-family:Arial;color:#000000;direction:ltr;letter-spacing:0px;line-height:100%;opacity:1&quot;&gt;Servicios Porvenir&lt;/font&gt;&lt;/p&gt;" style="text;vsdxID=52;fillColor=none;gradientColor=none;strokeColor=none;strokeWidth=0;spacingTop=-3;spacingBottom=-3;spacingLeft=-3;spacingRight=-3;labelBackgroundColor=none;rounded=1;html=1;whiteSpace=wrap;verticalAlign=middle;align=center;;html=1;" vertex="1" parent="LKHoJZJlkah-HH3FBG73-61">
          <mxGeometry x="-19.05" y="81.71" width="114.3" height="13.34" as="geometry" />
        </mxCell>
        <mxCell id="LKHoJZJlkah-HH3FBG73-67" style="vsdxID=67;fillColor=none;gradientColor=none;strokeColor=none;strokeWidth=0;spacingTop=-3;spacingBottom=-3;spacingLeft=-3;spacingRight=-3;labelBackgroundColor=none;rounded=1;html=1;whiteSpace=wrap;" vertex="1" parent="1">
          <mxGeometry x="25" y="12" width="77" height="140" as="geometry" />
        </mxCell>
        <mxCell id="LKHoJZJlkah-HH3FBG73-68" style="vsdxID=68;fillColor=#3e3e3e;gradientColor=none;strokeOpacity=0;shape=stencil(hVPRcsIgEPwaXm+Ou4yEx461/+HU2DBNEwdjq3/fIGgAMd4TLLvM7sEJXh/b7aERhMfRDt/Nn9mNreB3QWT6trFmnFaCN4LX+8E2X3Y49Tu/P2wd061+hl93w9nrJKLTEF78XleAfEU+PP3zZD1f5oIAaAUVeehMAVoBVTiXDIrbsQatg4IDJIHDJRfOWVcn+DaZ6Uwfea9Bpd5TxaN3BlVjXJRFiYwFr5hZj8JyyuBiAwu204avQC56zrpNoHRcKrX7NOEtDriU96q1Ummauad8VyzHiZ+uJHmM9Ox7yFceKf+CtNwUzvlc6nkh08upmBbzRO1N1/mBjM/zCZwgP728+Qc=);spacingTop=-3;spacingBottom=-3;spacingLeft=-3;spacingRight=-3;labelBackgroundColor=none;rounded=0;html=1;whiteSpace=wrap;" vertex="1" parent="LKHoJZJlkah-HH3FBG73-67">
          <mxGeometry width="77" height="140" as="geometry" />
        </mxCell>
        <mxCell id="LKHoJZJlkah-HH3FBG73-69" style="vsdxID=69;fillColor=#59b4d9;gradientColor=none;strokeOpacity=0;shape=stencil(pZPRDoIgFIafhlsGHOfyspm9h0tMlqlDLXv7IFowUWnF1fH4f/j/8xwEaV/lHUeM9INsL/wuiqFCcECMiabiUgyqQpAhSMtW8rNsx6Ywz12ulbq6tjd9w2S4GEOiIUYepkEJZvTVORp9LRpHnwCOt/WnUZoPUEsQ59A3Ti1PEudE5v3EtnEWwMHzC4uGyT6ccUdwFP2R0fLfxnKJ1SQzWwtJvL8bTOIQ6+Yd0bpfR/S73+B0+X5DA+WbD82Qn2RphlRtl6wUdW129ONcFfOlVC2z0JA9AQ==);spacingTop=-3;spacingBottom=-3;spacingLeft=-3;spacingRight=-3;labelBackgroundColor=none;rounded=0;html=1;whiteSpace=wrap;" vertex="1" parent="LKHoJZJlkah-HH3FBG73-67">
          <mxGeometry width="77" height="140" as="geometry" />
        </mxCell>
        <mxCell id="LKHoJZJlkah-HH3FBG73-70" style="vsdxID=70;fillColor=#ffffff;gradientColor=none;strokeOpacity=0;shape=stencil(hZLRDoIwDEW/Zq9NaQfCo0H9DyMoRAQyUfHvBdfIMlD31HU93V13FafXYt/mivDameacP8qsKxRvFFFZF7kpuyFSvFWcHhuTn0xzqzO7b/dj5RhdmvvYobdcGIPWI0X4tJkEgWxmZ4HDzVgicBB0Vii8nCcM0rEnITREq8RZAshxEgGSECwEAgZSxX7VWxeuF6TpEJg8NU5zuU8HEEaehEkzz4t4cTLLChxMUvEKkD0Fjk5JxRp09HcIU9V3Cd+mHcwvoj8/SvMX8Nw3P8YzxJPzjmVVWeN+vDUEvlOHlHU5b18=);spacingTop=-3;spacingBottom=-3;spacingLeft=-3;spacingRight=-3;labelBackgroundColor=none;rounded=0;html=1;whiteSpace=wrap;" vertex="1" parent="LKHoJZJlkah-HH3FBG73-67">
          <mxGeometry width="77" height="140" as="geometry" />
        </mxCell>
        <mxCell id="LKHoJZJlkah-HH3FBG73-71" style="vsdxID=71;fillColor=#b8d432;gradientColor=none;strokeOpacity=0;shape=stencil(hZLdksIgDIWfhtsMJMGFyx1X38PRajvrWgfr39tvkWhZrCtXIZwPTtOjaHqoF/tKoT50of2uzs2qqxV9KcRmV1eh6fpK0UzRdN2GahPa426V9vtFVMbqpz3FGy6JsxbYRwr1NXW8BuRbZ56A5TEkwgyI89mywsu5R4j72LqgIATG62zdETn3DJoEIUE0aCMqKlU3Z/pzxBx/gKHCT3a5vMcM1hQWENj8tZCraHQ44xYyTFrOPVuYgCssuAkwv53CoHpt4eW8zfNL+Oav4uMT0Bbmsuz8M5++HtK3brbbFN5HvvqiTGvfSkmn2S8=);spacingTop=-3;spacingBottom=-3;spacingLeft=-3;spacingRight=-3;labelBackgroundColor=none;rounded=0;html=1;whiteSpace=wrap;" vertex="1" parent="LKHoJZJlkah-HH3FBG73-67">
          <mxGeometry width="77" height="140" as="geometry" />
        </mxCell>
        <mxCell id="LKHoJZJlkah-HH3FBG73-72" style="vsdxID=72;fillColor=#ffffff;gradientColor=none;fillOpacity=15;strokeOpacity=0;shape=stencil(lZPRbsIwDEW/Jq+WY3ckfpwY+w8EZY3WtSiUDf5+6RJoU9ZK5Mmxz01901jx+lRtj6UiPHW+/Sx/3L6rFL8pItdUpXddiBRvFK8PrS8/fHtu9nF/3PZkH3213/0Jl6hbAUsvIrzGhEUoir/Me+Rr1yzxGoH0PG8IjH5KYOGFM0HgeZ63YBbp3dlHvzrWGYzF8aIk13c9ybCsmHT+hRKQ+LQN/mS8bjTnNN+uT8vQHb4+2MHMjBSAi24wb14MFJS3O+s31UVAJO95uFKeMnNta7l/+PqvZipgDZj/uGcf3gMfguGVH1xdxyEZ16dTEVJxonjzCw==);spacingTop=-3;spacingBottom=-3;spacingLeft=-3;spacingRight=-3;labelBackgroundColor=none;rounded=0;html=1;whiteSpace=wrap;" vertex="1" parent="LKHoJZJlkah-HH3FBG73-67">
          <mxGeometry width="77" height="140" as="geometry" />
        </mxCell>
        <mxCell id="LKHoJZJlkah-HH3FBG73-73" style="vsdxID=73;fillColor=#1e1e1e;gradientColor=none;strokeOpacity=0;shape=stencil(fZPdcoMgEIWfhtsd5IA/l500fY9MYypTqxli2vTtiwEriMrVusvHnLPuMhxuzelaM8Fvg+k/6x99HhqGVyaE7pra6MFGDEeGw6U39Yfp793ZfV9P480x+uq/xxcejssllXKkBP91GUUlnok3d//9bhyQpcSUIlWFx5cfwpdBFTzhUwUJ8OBMBDwhqCg9gZmYZfEXq6zVXeAEBck8chIjqRPkBB7qVrGtLZHeAxTJKra11QikBNa6/bSVyAyobKJ4FipTC2VbxnxdkoyMFQuZQScxE7vdD//YGrIyR8FUZPu6RDp5Yr8RSInthtt4Xo+Lblu3Xf/KbbBcJ5tyq4jjHw==);spacingTop=-3;spacingBottom=-3;spacingLeft=-3;spacingRight=-3;labelBackgroundColor=none;rounded=0;html=1;whiteSpace=wrap;" vertex="1" parent="LKHoJZJlkah-HH3FBG73-67">
          <mxGeometry width="77" height="140" as="geometry" />
        </mxCell>
        <mxCell id="LKHoJZJlkah-HH3FBG73-74" style="vsdxID=74;fillColor=#ffffff;gradientColor=none;strokeOpacity=0;shape=stencil(fZPdcoMgEIWfhtsd5IA/l500fY9MYypTqxli2vTtiwEriMrVusvHnLPuMhxuzelaM8Fvg+k/6x99HhqGVyaE7pra6MFGDEeGw6U39Yfp793ZfV9P480x+uq/xxcejssllXKkBP91GUUlnok3d//9bhyQpcSUIlWFx5cfwpdBFTzhUwUJ8OBMBDwhqCg9gZmYZfEXq6zVXeAEBck8chIjqRPkBB7qVrGtLZHeAxTJKra11QikBNa6/bSVyAyobKJ4FipTC2VbxnxdkoyMFQuZQScxE7vdD//YGrIyR8FUZPu6RDp5Yr8RSInthtt4Xo+Lblu3Xf/KbbBcJ5tyq4jjHw==);spacingTop=-3;spacingBottom=-3;spacingLeft=-3;spacingRight=-3;labelBackgroundColor=none;rounded=0;html=1;whiteSpace=wrap;" vertex="1" parent="LKHoJZJlkah-HH3FBG73-67">
          <mxGeometry width="77" height="140" as="geometry" />
        </mxCell>
        <mxCell id="LKHoJZJlkah-HH3FBG73-75" style="vsdxID=75;fillColor=#ffffff;gradientColor=none;fillOpacity=75;strokeOpacity=0;shape=stencil(pZNNDoIwEIVP023THym4NIj3IFKkEYEUULy9rU2koYVqZDVM3se8F2YATfsq7zggqB9ke+UPUQwVoEdAiGgqLsWgKkAzQNOylfwi27EpzHuXa6Wubu1df2EyHI7gDmuKoKfpsB1k8btzMkAtGgugBCbxNnAepRmBXQQvGTQRV0VcFXVV1DsfHb7wHDPIoh89z8yWZ1u17nkx3+PZ/TFBzxpBe+tJggFWkfU0trE/0gS3JpTGs0KhNJ598qTx7ZOq5wsqRV2bA/yYV8Xy4lTLXCvNXg==);spacingTop=-3;spacingBottom=-3;spacingLeft=-3;spacingRight=-3;labelBackgroundColor=none;rounded=0;html=1;whiteSpace=wrap;" vertex="1" parent="LKHoJZJlkah-HH3FBG73-67">
          <mxGeometry width="77" height="140" as="geometry" />
        </mxCell>
        <mxCell id="LKHoJZJlkah-HH3FBG73-76" style="vsdxID=76;fillColor=#ffffff;gradientColor=none;fillOpacity=75;strokeOpacity=0;shape=stencil(pZPLDoIwEEW/ptumDwuyNIj/QaRII1JSQPHvba2RBsojgdUw6aHnhhlA46ZIaw4Ialol7/wlsrYA9AwIEVXBlWh1BWgCaJxLxW9KdlVm3+vUnDTVQz7NF3rLHRAMqaEIetsOYzCIvp2LBUpROQA7QoyXgWun7BV4QFDkPD8cj3nUk2WCTAk61aJeL3TakCUMYMB2ZBn4rVlcYj7LyMuTZfojV7O4yLy/e2re2T21w3l1ljzOnvnxOHtmxuPsmxldD9uTi7K0y/dX1MV423TLbipNPg==);spacingTop=-3;spacingBottom=-3;spacingLeft=-3;spacingRight=-3;labelBackgroundColor=none;rounded=0;html=1;whiteSpace=wrap;" vertex="1" parent="LKHoJZJlkah-HH3FBG73-67">
          <mxGeometry width="77" height="140" as="geometry" />
        </mxCell>
        <mxCell id="LKHoJZJlkah-HH3FBG73-77" style="vsdxID=77;fillColor=#ffffff;gradientColor=none;fillOpacity=75;strokeOpacity=0;shape=stencil(pZPRDoIwDEW/Zq8EVhnwaBD/g8iQRQQyQPHv3VwCCxtMI0+lu3c9zVoEaV/lHUXY7wfe3uiTFUOF4IQwZk1FORtEhCBDkJYtp1fejk2h/rtcKmV0bx/yhkn5SOglsXRh/6UyB+JFn8RZ6WvWaPoYvEO4q7+MXBUITEcwW0iif0SdT9i0YIcFTAvYwPzjF71Eokr4YzOLZ49fV20jr+pbmM33cjLrlm1mXbXNrKv+YHbNjAXZNTMWftfMWJqxzIyIl+UpWV2r3ZvZRbBeNpFSiwrZGw==);spacingTop=-3;spacingBottom=-3;spacingLeft=-3;spacingRight=-3;labelBackgroundColor=none;rounded=0;html=1;whiteSpace=wrap;" vertex="1" parent="LKHoJZJlkah-HH3FBG73-67">
          <mxGeometry width="77" height="140" as="geometry" />
        </mxCell>
        <mxCell id="LKHoJZJlkah-HH3FBG73-78" style="vsdxID=78;fillColor=#ffffff;gradientColor=none;fillOpacity=75;strokeOpacity=0;shape=stencil(lZTdcoMgEIWfhtsdYEHhspMm75FpTHVqNUNMm759sWBd8SctV7i7n+w54jLcXcvjpWCSXzvXvhWf1akrGT4zKaumLFzV+R3DPcPduXXFq2tvzSk8X459Zb97bz/6N9wDl2uQuqck/woRoUCYn8ghAHXVEEAiZGIbeLm5cISIBQZMFhFBGE5WHvJ3GfMaFLdkmcgP+QxymrYDjyM/dDmELOSkTf40k0ahEMEMrN6UttZnzCsOIlFmvfINZUqCpsaIqTBqP47Epi70jJ3omiJ/qLdgxTqgFCj8xwHzS5fWpz4bnvi64lI00SAoPfUVvQQ59ZJW4eIHXzCTQosXa6F5gogH91cmeuWD/wXnjiJBEil+Pw6Cc1XXYY78du436eDwoTB0cP8N);spacingTop=-3;spacingBottom=-3;spacingLeft=-3;spacingRight=-3;labelBackgroundColor=none;rounded=0;html=1;whiteSpace=wrap;" vertex="1" parent="LKHoJZJlkah-HH3FBG73-67">
          <mxGeometry width="77" height="140" as="geometry" />
        </mxCell>
        <mxCell id="LKHoJZJlkah-HH3FBG73-79" style="vsdxID=79;fillColor=#000000;gradientColor=none;fillOpacity=0;strokeOpacity=0;shape=stencil(hZPRcsIgEEW/hldm2TUJPHas/Q+nRsOYJg7G1v59QdAgBMvTsrOHuXeXZbQ+d9tTyxDOkxmP7Y/eTR2jd4aoh641erIRow2j9X407cGMl2Hn76etq3TR1/jtXrh6TvFKOQjh1yfgdvvwtb0eolqpOFXl4s+L8S+L8DTwlYL5iICKmIUrhmrBoQkVIWV5UNGp64BQjoSU4O561wRvmYeYCRnJa3rpI0LuKcVXVaK/4BYfhEzkx+2ktKqoP51XguTypZUK5THEwoLWhstmicDcPM1E4uS5qwtOImZpdrmRkizxz2/B133A5+9IWZ8p++s3Nzael2qv+97v5EO+DdIltCm/wLT5Aw==);strokeWidth=0;spacingTop=-3;spacingBottom=-3;spacingLeft=-3;spacingRight=-3;labelBackgroundColor=none;rounded=0;html=1;whiteSpace=wrap;" vertex="1" parent="LKHoJZJlkah-HH3FBG73-67">
          <mxGeometry width="77" height="140" as="geometry" />
        </mxCell>
        <mxCell id="LKHoJZJlkah-HH3FBG73-80" style="vsdxID=80;fillColor=#000000;gradientColor=none;fillOpacity=0;strokeOpacity=0;shape=stencil(fZPdEoIgEIWfhtsd2NWUy6af92jKksm0Ift7+zRQCUiulp1zmO8Ay2h1K3fXgiG/tbo5F091aEtGa4ao6rLQqu0qRhtGq2Oji5Nu7vXB7K+7XtlXl+bRn/AyPgEy603I36aRwkJ+G1sjr1TtyGUOmM/q93dtzhfWISFB6xCjJZfOsge+0CJxbvW2sQCRcGcJqydfT4Ne4oTEl0GKyWEZEbJsLsRkGFIRpB62G3RoJcDpF9a9QPJVf3n9R/IsITCHnDxihwUHEaYesBOLAhFFbyvC63hiLxLDHQ1i/s0xyIfzn4qCK6TYx/2m6OppTo6qqsyYjdhd4c9V1zIzSZsP);strokeWidth=0;spacingTop=-3;spacingBottom=-3;spacingLeft=-3;spacingRight=-3;labelBackgroundColor=none;rounded=0;html=1;whiteSpace=wrap;" vertex="1" parent="LKHoJZJlkah-HH3FBG73-67">
          <mxGeometry width="77" height="140" as="geometry" />
        </mxCell>
        <mxCell id="LKHoJZJlkah-HH3FBG73-81" value="&lt;p style=&quot;align:center;margin-left:0;margin-right:0;margin-top:0px;margin-bottom:0px;text-indent:0;valign:middle;direction:ltr;&quot;&gt;&lt;font style=&quot;font-size:11px;font-family:Arial;color:#000000;direction:ltr;letter-spacing:0px;line-height:100%;opacity:1&quot;&gt;Tarjeta VENN&lt;/font&gt;&lt;/p&gt;" style="text;vsdxID=67;fillColor=none;gradientColor=none;strokeColor=none;strokeWidth=0;spacingTop=-3;spacingBottom=-3;spacingLeft=-3;spacingRight=-3;labelBackgroundColor=none;rounded=1;html=1;whiteSpace=wrap;verticalAlign=middle;align=center;;html=1;" vertex="1" parent="LKHoJZJlkah-HH3FBG73-67">
          <mxGeometry x="-19.05" y="145.71" width="115.57" height="13.34" as="geometry" />
        </mxCell>
        <mxCell id="LKHoJZJlkah-HH3FBG73-82" style="vsdxID=82;fillColor=none;gradientColor=none;strokeColor=none;spacingTop=-3;spacingBottom=-3;spacingLeft=-3;spacingRight=-3;labelBackgroundColor=none;rounded=1;html=1;whiteSpace=wrap;" vertex="1" parent="1">
          <mxGeometry x="25" y="520" width="176" height="177" as="geometry" />
        </mxCell>
        <mxCell id="LKHoJZJlkah-HH3FBG73-83" style="vsdxID=83;fillColor=#b41055;gradientColor=none;strokeOpacity=0;shape=stencil(hVLbDoMgDP0aXkmlw8vj4tx/mImTzKlB3fTvh4NEmNHx1NOeNqecEkz7Ku8EYdAPqn2ItyyGiuCFMCabSig56IhgRjAtWyXuqh2bwuAuX5hL9Gxfy4TJ9GFE49PSxWA2mQDgi6+GXsvGoZ8o8iP2bVRmemDLNInBfcx2B347TMwkLJwtTGIKaBnoMyxMOA2DVQKcN5rBE8z1CuGRZPAVcr1C5GvcXcrWOfiKnU9Dj7GneGsKP/Dkr4U6WO0vZV2b63Hrv+eiU+bUMPsA);spacingTop=-3;spacingBottom=-3;spacingLeft=-3;spacingRight=-3;labelBackgroundColor=none;rounded=0;html=1;whiteSpace=wrap;" vertex="1" parent="LKHoJZJlkah-HH3FBG73-82">
          <mxGeometry width="176" height="177" as="geometry" />
        </mxCell>
        <mxCell id="LKHoJZJlkah-HH3FBG73-84" style="vsdxID=84;fillColor=#e86299;gradientColor=none;strokeOpacity=0;shape=stencil(pZLBEoIgEIafhiuzQEx6bMzew0lMJlMHtfTtA6EQbbx0W3a+Hz5gEUu6MmsFotD1qrmLl8z7ErEzolTWpVCy1xViKWJJ0ShxU81Q53bdZoY01aN5mh1Gm4s5PlKTojDZDgGY1xeLV7Je4BHBnP+D8x166xLS10FZdeL4CEPseBIEYKShHUyuwQmOXGZka8Y1+AHT2B8Mp42pj3hzsqfqA96dkNB1eZ21/sd1+UTsxwfMrrr2313IqrLT8pXTxXo8dMuOFkvf);spacingTop=-3;spacingBottom=-3;spacingLeft=-3;spacingRight=-3;labelBackgroundColor=none;rounded=0;html=1;whiteSpace=wrap;" vertex="1" parent="LKHoJZJlkah-HH3FBG73-82">
          <mxGeometry width="176" height="177" as="geometry" />
        </mxCell>
        <mxCell id="LKHoJZJlkah-HH3FBG73-85" style="vsdxID=85;fillColor=#f173a7;gradientColor=none;strokeOpacity=0;shape=stencil(pZHbEoIgEIafhlsGWSm4bMzew0lMJhMHteztg5ZJO0w3cvXv8v07eyCQ9XXRacJZPzh71jdTDjWBPeHctLV2ZvCKQE4gq6zTJ2fHtsS4KwIZ1MVeQ4UJfSBpsgkuzu6YSRh7xgfEG9MucAk0VWtw8YeGlbQSFMTScBwdzprMFqkWT0R//FdbKmPJiUeLoCKNFH+fmE3wvUP4sRW28714Pd+gMk2DJ3z16sXnzXwK7w35Aw==);spacingTop=-3;spacingBottom=-3;spacingLeft=-3;spacingRight=-3;labelBackgroundColor=none;rounded=0;html=1;whiteSpace=wrap;" vertex="1" parent="LKHoJZJlkah-HH3FBG73-82">
          <mxGeometry width="176" height="177" as="geometry" />
        </mxCell>
        <mxCell id="LKHoJZJlkah-HH3FBG73-86" style="vsdxID=86;fillColor=#c12664;gradientColor=none;strokeOpacity=0;shape=stencil(pZLBDoMgDIafhispoFGPi3PvYSZOMqcGdXNvP7Rkwsh22a39+QrtT4nIx6YcJOEwTrq/yoeqpoaII+FcdY3UajIREQURed1redH93FWYD+VKrtGtv683LFiXpDTjaxWHJyqwZSeEW9U5MGc0Tr/D51nj1QwPWUYhsThzeVi4JRIKmSWsZJtZREhYKaLx/iocgi7dElTiHzOlgkb8D9rrJvTALWD+hHbglNEo8j0A3wP3j0Tg++aAifcfrlXb4oK82zLB50YYCbdJFC8=);spacingTop=-3;spacingBottom=-3;spacingLeft=-3;spacingRight=-3;labelBackgroundColor=none;rounded=0;html=1;whiteSpace=wrap;" vertex="1" parent="LKHoJZJlkah-HH3FBG73-82">
          <mxGeometry width="176" height="177" as="geometry" />
        </mxCell>
        <mxCell id="LKHoJZJlkah-HH3FBG73-87" style="vsdxID=87;fillColor=#cf3071;gradientColor=none;strokeOpacity=0;shape=stencil(lZHRDoIwDEW/Zq9L1zmQR4P4H0SGLCIzAxT/XmaXMCWa+HZ7e9quK5N535RXzRD6wdmzvptqaJjcM0TTNdqZYVZMFkzmtXX65OzYVRRfS096dbE332GiuiThW1+E8CADXtGB2NZ0EYuCK/UdPo6OOgtKioxDGnAR8zBhIFIOWSCChYGQayJYG66WqbBbvTIuIUf92Gm1/1/wGzuL5Zdr07Z0pDj/eZXZoovK4gk=);spacingTop=-3;spacingBottom=-3;spacingLeft=-3;spacingRight=-3;labelBackgroundColor=none;rounded=0;html=1;whiteSpace=wrap;" vertex="1" parent="LKHoJZJlkah-HH3FBG73-82">
          <mxGeometry width="176" height="177" as="geometry" />
        </mxCell>
        <mxCell id="LKHoJZJlkah-HH3FBG73-88" style="vsdxID=88;fillColor=#b5205c;gradientColor=none;strokeOpacity=0;shape=stencil(lZPRcoIwEEW/Jq87yW6C8Nix9j8cRclIwYlY9e8Fs0ggtEzztFxy4O5NVtD6UmzPuUB5aVx9ym923xSCPgWirYrc2aatBG0ErQ+1y4+uvlZ7/3zedju76rv+6b5w95xOAJOOQvnwikrA6Jfy5YHSVgFAKzDZ38Du6vwvFCMGCBlRA0NZsPj9HRkh0L0tlpSGJJXBWjFCMcKSQqBscCY/5swFWG9OgtITP0ELLKWA6VwHFOdEb2LqZpxtfBhjJHavUzAmdGHGrfxmknswsg9oiDlonuJd/0g2xNTCGeJCO7hwbSgOkGZv58tpWw/zcLBl6cfpnXJbTOenlfzs0eYJ);spacingTop=-3;spacingBottom=-3;spacingLeft=-3;spacingRight=-3;labelBackgroundColor=none;rounded=0;html=1;whiteSpace=wrap;" vertex="1" parent="LKHoJZJlkah-HH3FBG73-82">
          <mxGeometry width="176" height="177" as="geometry" />
        </mxCell>
        <mxCell id="LKHoJZJlkah-HH3FBG73-89" style="vsdxID=89;fillColor=#fe90be;gradientColor=none;strokeOpacity=0;shape=stencil(pZBLDsIwDERP423UxiWQdSn3qNSUWISkSsPv9iR4QUXFArEbj/2s0QC2s+0nA7KaUwwnc6MhWcA9SEnemkgpK8AOsB1DNMcYLn7geerLZVHncC0f7swpJZQulKwe7Gy1qJuXc2DAkV8ATS305j9ghwLVd2Ad6WdgFSmLdwMjOccFLvefjWWL28buCQ==);spacingTop=-3;spacingBottom=-3;spacingLeft=-3;spacingRight=-3;labelBackgroundColor=none;rounded=0;html=1;whiteSpace=wrap;" vertex="1" parent="LKHoJZJlkah-HH3FBG73-82">
          <mxGeometry width="176" height="177" as="geometry" />
        </mxCell>
        <mxCell id="LKHoJZJlkah-HH3FBG73-90" style="vsdxID=90;fillColor=#fe90be;gradientColor=none;strokeOpacity=0;shape=stencil(UzV2Ls5ILEhVNTIoLinKz04tz0wpyVA1dlE1MsrMy0gtyiwBslSNXVWNndPyi1LTi/JL81Ig/IJEkEoQKze/DGRCBUSfqZmegSFIl5FBJUTEwlzP1AQs4gbRkJOZh6TBxFDP0pQyDZaGeuYWuDVgOolkDRhOAjIQIZCWmZMDCUBkefQQAwpBQtvYFQA=);spacingTop=-3;spacingBottom=-3;spacingLeft=-3;spacingRight=-3;labelBackgroundColor=none;rounded=0;html=1;whiteSpace=wrap;" vertex="1" parent="LKHoJZJlkah-HH3FBG73-82">
          <mxGeometry width="176" height="177" as="geometry" />
        </mxCell>
        <mxCell id="LKHoJZJlkah-HH3FBG73-91" style="vsdxID=91;fillColor=#cb2e6f;gradientColor=none;strokeOpacity=0;shape=stencil(jZPREoIgEEW/hlcGdpX0sTH7j6Y0mUwdtLK/TwMVoZp8Wpe9cPbCEkza4tBkBFjbqfqSPeSpKwjuCICsikzJbogIpgSTvFbZWdW36qT/m8NYOUbX+j7u0GudACrEqAL2NBlBN9E7s9eCUlaWIAwoxr8Fx5vSR3AjAcp4bH3TgdzdgPVgJIxybqpMSgQ0MsIe/Sqc+wkXFrb9hGOpJoIlNRN8g57WI8ojB8eyBt2qhWftp38BjsZvQISUoY22bsYmg9nhOHDstFpGv+p/O20V968KfjOD/wTQNwY/vrQ3zhAvbzuXZalHYzZvCNxZGFJ6jjB9AQ==);spacingTop=-3;spacingBottom=-3;spacingLeft=-3;spacingRight=-3;labelBackgroundColor=none;rounded=0;html=1;whiteSpace=wrap;" vertex="1" parent="LKHoJZJlkah-HH3FBG73-82">
          <mxGeometry width="176" height="177" as="geometry" />
        </mxCell>
        <mxCell id="LKHoJZJlkah-HH3FBG73-92" style="vsdxID=92;fillColor=#900740;gradientColor=none;strokeOpacity=0;shape=stencil(lVPbkoIwDP2avmaaBGp53PHyH47i0lkEp+Au/r1gq9RWd2f7FNJzmpNDInjZVdtTKUh2vW2/yh+z7yvBK0Fkmqq0ph8jwWvBy0Nry0/bnpu9+z5tJ+QUHdvv6YXB8agAnEgkLy6hFCz0LbNx+No0IV6CVr8TdmfrKqADoIaskMEhz8f4ATmQpyjIc4/yKZU9Cg+conxKEeSzFvnxSk7AuiuQgBgpeCfa3+caUD/LCa3hGDXrifyM/Y8oqX5GyHSoLHtuJlTmxTIDL4rgxN4G/fNM0f/29m0hTH8i/dEOpdPBiWf8cgZv2sZ4HvqDqWu3Mw9fxyBekjHlFozXVw==);spacingTop=-3;spacingBottom=-3;spacingLeft=-3;spacingRight=-3;labelBackgroundColor=none;rounded=0;html=1;whiteSpace=wrap;" vertex="1" parent="LKHoJZJlkah-HH3FBG73-82">
          <mxGeometry width="176" height="177" as="geometry" />
        </mxCell>
        <mxCell id="LKHoJZJlkah-HH3FBG73-93" value="&lt;p style=&quot;align:center;margin-left:0;margin-right:0;margin-top:0px;margin-bottom:0px;text-indent:0;valign:middle;direction:ltr;&quot;&gt;&lt;font style=&quot;font-size:11px;font-family:Arial;color:#000000;direction:ltr;letter-spacing:0px;line-height:100%;opacity:1&quot;&gt;Servicenow&lt;/font&gt;&lt;/p&gt;" style="text;vsdxID=82;fillColor=none;gradientColor=none;strokeColor=none;spacingTop=-3;spacingBottom=-3;spacingLeft=-3;spacingRight=-3;labelBackgroundColor=none;rounded=1;html=1;whiteSpace=wrap;verticalAlign=middle;align=center;;html=1;" vertex="1" parent="LKHoJZJlkah-HH3FBG73-82">
          <mxGeometry x="-19.05" y="182.71" width="214.63" height="13.34" as="geometry" />
        </mxCell>
        <mxCell id="LKHoJZJlkah-HH3FBG73-94" style="vsdxID=94;fillColor=none;gradientColor=none;strokeColor=none;strokeWidth=0;spacingTop=-3;spacingBottom=-3;spacingLeft=-3;spacingRight=-3;labelBackgroundColor=none;rounded=1;html=1;whiteSpace=wrap;" vertex="1" parent="1">
          <mxGeometry x="749" y="381" width="76" height="76" as="geometry" />
        </mxCell>
        <mxCell id="LKHoJZJlkah-HH3FBG73-95" style="vsdxID=95;fillColor=#a0a1a2;gradientColor=none;strokeOpacity=0;shape=stencil(pVfLcsIwDPyaXDO2ZMf2sUPpfzAFSqYUOgFa+vclxHb8IIKEnPxYBXl3pZgCZ4fN4ntVADscm/3n6rdeHjcFvhYA9W6zaurjZVTgvMDZet+sPpr9abfs5t+LFtmOvvY/7RvOXZxgJVdtFLC/bsXgdfrWobf1LkBPRVZsGMmx1Eig309NlzB3eAu2c6m7+RnsPpTSsOABi7f7UvrfO2MQYlF2SWIpeJ8Ge8nzDoJczPAp2UQkZwR1QpW8egaugEBnzhiHjt0Ru04/bg9DeYOEGnTHvYmWJvXd6AAF7tC3A6DU4rkAUk+3OQlMWVDLVMwYnZakrnq8q0oZV6VX3FWhikvQ76Mn21bXUP2RHhrX5GJ0jBQEp0l5jKqlMWCoEmOmAgjoK9sugUjaoOt5VgAhejfbJcCBEMz7B7oQUqO84xBssmlAQVDJMe3RMTr7togezz1PUpvgqWIe/fnASxFSyHjMIdcxga3YFckhZcdnbJ63M7jTnfL+93AvfhyZEJKxod13eTAgFVWlirbFEiqatCpl+p+AOybAPARzo91S1WTnUCT7af8eCSfKKf/qjAIDd7YY4P96lQpLQsR69C/wEkjMmxOnm5MUmQTXkESFLLnqthmo5FRpoidLNL1fhpXjcotr7ZrbZdxf09f1dtvd8j2xl0F6rb8sdX8JcP4P);strokeWidth=2;spacingTop=-3;spacingBottom=-3;spacingLeft=-3;spacingRight=-3;labelBackgroundColor=none;rounded=0;html=1;whiteSpace=wrap;" vertex="1" parent="LKHoJZJlkah-HH3FBG73-94">
          <mxGeometry width="76" height="76" as="geometry" />
        </mxCell>
        <mxCell id="LKHoJZJlkah-HH3FBG73-96" style="vsdxID=96;fillColor=#59b4d9;gradientColor=none;strokeOpacity=0;shape=stencil(hZTbcoIwEIafJrcZks2Jy47V93AqFqYUHMRW377BnBOoXIVl/+zHn80i2F3b46VBtLrO0/jV/HanuUXwjijthraZulmvEOwR7M7j1HxO4204mffLcclcVt/jz7LD3egUwbxeVLR6mAivMSPPyMEIPm6TUZAgUXX0WLn9zDkmwoTu1ISkwpTbLBvi1KaATWGYSJsCScqTonrTIH03ROQSfJ1HKSixdT7PUSv3qwGVpZxMeVVATTmZwAoy1KI4SysDdxpfWSy+rdhqP1OZUnAWPIUkZZuC8cICv60tA+VRAS0sgGgj50LlQtv1ITpk4mV5t+h6KjsFqLVdsTci4yFF9ywS9oKHgt62ih6andJWWYtFZEHKeLYlT0ljiTtJSC7cKmkssyGRde7mz7j+ki89E3kDZTeOYel6oxSsNL0q2k2I0Ev0/3HisCHcUShnlvOwLj3U6zD1zl3fm6HpcfUin5I6ZCYs7P8A);strokeWidth=2;spacingTop=-3;spacingBottom=-3;spacingLeft=-3;spacingRight=-3;labelBackgroundColor=none;rounded=0;html=1;whiteSpace=wrap;" vertex="1" parent="LKHoJZJlkah-HH3FBG73-94">
          <mxGeometry width="76" height="76" as="geometry" />
        </mxCell>
        <mxCell id="LKHoJZJlkah-HH3FBG73-97" style="vsdxID=97;fillColor=#ffffff;gradientColor=none;fillOpacity=20;strokeOpacity=0;shape=stencil(lZRLcsMgDIZP4y0DSDy87KTpPTKNU3uaxhnHadPbF4eHgdhh6hUWv9CHJFTB5tLuzk3F6WUc+s/mp9uPbQWvFefdqW2GbjSrCrYVbA790HwM/fW0t//n3aScVl/993TCzfqBJsgmL05/rUWq+++bVb9fBytnTi+JqJ3emaQgTFrTjTuVMKfS6EPn4vYlOD04PRIlnMSZJPVgdxL6sgQDJvJSGLcvIMNSM7wzoSAa4iNESoYZFqK/7DoWmhzpOvpkioVANKZkqDOsSOIj13OlAkyBRNA0skkAU2lkgYSLNDiwNPJcihCZ61Jk/TwHXBGk8X6OtZZD7v1TRnONB0ZVYLzX/ilj1j7RW/EmHjoq9LIIpQt1ol71pJdx5cmwcMbDK4MMpl6+TyBjDzmaXEpNxDOS1TAOg+W9XHhiQe9LCeWXH3z8DGIpA88HjiqmQubtcuxO/xiUZjHP2EN3PNoRHe/nM9mY7DyH7R8=);strokeWidth=2;spacingTop=-3;spacingBottom=-3;spacingLeft=-3;spacingRight=-3;labelBackgroundColor=none;rounded=0;html=1;whiteSpace=wrap;" vertex="1" parent="LKHoJZJlkah-HH3FBG73-94">
          <mxGeometry width="76" height="76" as="geometry" />
        </mxCell>
        <mxCell id="LKHoJZJlkah-HH3FBG73-98" style="vsdxID=98;fillColor=#000000;gradientColor=none;fillOpacity=0;strokeOpacity=0;shape=stencil(hZPLEsIgDEW/hm0HEmvL0vHxH45Wy1hbB+vr7wVBm6ZVWYWQy9wTiMD5uVyfCgHy3NrmUNzMti0FLgSAqcvCmtZFApcC57vGFnvbXOpt2J/WvtJHx+bqb7gHHSSp8iKQj5BQSapfiVUor0xNynWW5JOf9ZuLDferqMiTaRYVqpNIsjDeeIco0bE+7iEeIzvGN0KWdg7kbGha9xw7Bpn/tKz7fj00MouEqkupKXNKuoW86pvbwYswydCvcg2g/ZTA/BNn8JagwyQrZzAEGT8SZCz9Ro6wEM3YW42hfPGl+l8B/pDDn5+Gg17j2Hd+Ibm4m56dqaowfB8GF/Bpc6kwqbh8Ag==);strokeWidth=0;spacingTop=-3;spacingBottom=-3;spacingLeft=-3;spacingRight=-3;labelBackgroundColor=none;rounded=0;html=1;whiteSpace=wrap;" vertex="1" parent="LKHoJZJlkah-HH3FBG73-94">
          <mxGeometry width="76" height="76" as="geometry" />
        </mxCell>
        <mxCell id="LKHoJZJlkah-HH3FBG73-99" value="&lt;p style=&quot;align:center;margin-left:0;margin-right:0;margin-top:0px;margin-bottom:0px;text-indent:0;valign:middle;direction:ltr;&quot;&gt;&lt;font style=&quot;font-size:11px;font-family:Arial;color:#000000;direction:ltr;letter-spacing:0px;line-height:100%;opacity:1&quot;&gt;Tabla de Amortización&lt;/font&gt;&lt;/p&gt;" style="text;vsdxID=94;fillColor=none;gradientColor=none;strokeColor=none;strokeWidth=0;spacingTop=-3;spacingBottom=-3;spacingLeft=-3;spacingRight=-3;labelBackgroundColor=none;rounded=1;html=1;whiteSpace=wrap;verticalAlign=middle;align=center;;html=1;" vertex="1" parent="LKHoJZJlkah-HH3FBG73-94">
          <mxGeometry x="-19.05" y="81.71" width="114.3" height="13.34" as="geometry" />
        </mxCell>
        <mxCell id="LKHoJZJlkah-HH3FBG73-100" style="vsdxID=101;fillColor=none;gradientColor=none;strokeColor=none;strokeWidth=0;spacingTop=-3;spacingBottom=-3;spacingLeft=-3;spacingRight=-3;labelBackgroundColor=none;rounded=1;html=1;whiteSpace=wrap;" vertex="1" parent="1">
          <mxGeometry x="37" y="215" width="53" height="76" as="geometry" />
        </mxCell>
        <mxCell id="LKHoJZJlkah-HH3FBG73-101" style="vsdxID=102;fillColor=#3999c6;gradientColor=none;strokeOpacity=0;shape=stencil(nVTbTsMwDP2avFqJ3TTpIxrjPybW0YjSTlkH4+9piRFJr4w8Occ+9rETWdDuUh3OpUB56Xz7Wn64Y1cJehSIrqlK77reErQXtDu1vnzx7bU5hvv5MEQO1lv7PmS4BV5OQAMJ5WcAlAYbkKcQ/3z1gaAmDEYwA13I6LD/hsGvCdBGbsV0dpOC3DCDApRJsMhRNI761iUfZqShhcym2uLkXE9ZIJ1KWOyAphSandOsnpjGkAFpiujYVFvcAUNyczRyQ8bS/FVaACfvi+uaaUJYmU367bSB/Gcy/FAGCoz/Xe2aiBC3zSkykHaZ0D+pUvdUkP8PNuvBVo2bvZuwIecP4+yN3x1wcnUdVkjsH++MHgr7hvZf);strokeWidth=2;spacingTop=-3;spacingBottom=-3;spacingLeft=-3;spacingRight=-3;labelBackgroundColor=none;rounded=0;html=1;whiteSpace=wrap;" vertex="1" parent="LKHoJZJlkah-HH3FBG73-100">
          <mxGeometry width="53" height="76" as="geometry" />
        </mxCell>
        <mxCell id="LKHoJZJlkah-HH3FBG73-102" style="vsdxID=103;fillColor=#ffffff;gradientColor=none;fillOpacity=20;strokeOpacity=0;shape=stencil(nVPRboMwDPyavFqObUh4nLruP6qVFjQGVUq37u8XmqgkbK3W5cn4fMR3sRWvjs3mUCvC4+iGt/qz3Y6N4mdF1PZN7drRR4rXile7wdV7N5z6bfg+bKbKKXofPqY/nANPW5ByYhF+xUwBli+Zl0B4PbnA0DOlqJJjIj/iJCA2xYuAnyniFjRFSkyxBtE4Hx0ZHGBBIIkMvjJKM3eJT77Rru0TZeJ1VJky9Jekwh6tXxohAsRJ1yi5EQi6TEWhzY0QAqNzI/CHcEu5cFyIXjbl3RW76CO/9ub7RdwAmhS2eU/pxPCvI3PpKx8zPxNaZ+aygYpuvwb+v9jcL2Z6qNq7ke9HcX+M/qDUB/M67tquC9uc4sv19amw+rz+Bg==);strokeWidth=2;spacingTop=-3;spacingBottom=-3;spacingLeft=-3;spacingRight=-3;labelBackgroundColor=none;rounded=0;html=1;whiteSpace=wrap;" vertex="1" parent="LKHoJZJlkah-HH3FBG73-100">
          <mxGeometry width="53" height="76" as="geometry" />
        </mxCell>
        <mxCell id="LKHoJZJlkah-HH3FBG73-103" style="vsdxID=104;fillColor=#ffffff;gradientColor=none;fillOpacity=40;strokeOpacity=0;shape=stencil(lZLdDoIwDIWfZrfNftm4NIjvQQRkEcEMUHx7gY3AwGjsVXfarzvZiljUFMk9QxQ3ramv2VOnbYHYEVGqqyIzuh0yxGLEorw22cXUXZXa8z0ZO8fsVj/GCb3lFIFAjBTFL6tICSGdlJMFSl19BQQBKtbAuTP2CuImCpCBQ5zEFSgWrsLVe+oQDtIRTuFitoV7tmti26bJCj58crNQZD96vp+AUr4BwYEEeBXcd8NDoKFvZ0I2dvzX5AFw6b+mz/wG/v6vHTAky3rkuiztdq3r23UaJLuKLH4D);strokeWidth=2;spacingTop=-3;spacingBottom=-3;spacingLeft=-3;spacingRight=-3;labelBackgroundColor=none;rounded=0;html=1;whiteSpace=wrap;" vertex="1" parent="LKHoJZJlkah-HH3FBG73-100">
          <mxGeometry width="53" height="76" as="geometry" />
        </mxCell>
        <mxCell id="LKHoJZJlkah-HH3FBG73-104" style="vsdxID=105;fillColor=#7fba00;gradientColor=none;strokeOpacity=0;shape=stencil(lVTbboMwDP2avEZxbsSPU9f9R7XSgcagSunW/f3CkpAQmNDyZI587INPHCIOt+Z0rQlnt9EO7/VXex4bIp4J523f1LYdXUTEkYjDZbD1mx3u/dl/X09T5hR9DJ9ThYfnIaeymlicfXtEKWrEL/LiCa936xngE6qKQqQESEmqA/TgIUvSmBQQiRQBs6MCQ6wYIjF4ksKettQkFuz0icog6Q+Q0hT0Uo2rwnEpJ2UlOV3bZ9PMSR4xsDPNnBIgI+Nvz5oVUK2Wmk0VK8+anQ0ol5qRUQk7I9TTHWDZ0Us9mE3nT3eBsT07Y8p/zExlyz6xMUKalihzxKYLG84lyqbXa6notsAUW7CeE7rFQFLeNWbyaRdrkG9k9FWt5bs47fSl7Tr/JMx6XVC+AQ7y74c4/gA=);strokeWidth=2;spacingTop=-3;spacingBottom=-3;spacingLeft=-3;spacingRight=-3;labelBackgroundColor=none;rounded=0;html=1;whiteSpace=wrap;" vertex="1" parent="LKHoJZJlkah-HH3FBG73-100">
          <mxGeometry width="53" height="76" as="geometry" />
        </mxCell>
        <mxCell id="LKHoJZJlkah-HH3FBG73-105" style="vsdxID=106;fillColor=#b8d432;gradientColor=none;fillOpacity=40;strokeOpacity=0;shape=stencil(jZPRcsIgEEW/htcdYIFkHzvW/oejsWGaJg7G1v69pICAtrZ5Ijd74AAbhqtjvzl0TPLj7Ka37tPu5p7hM5PSjn3n7OxHDNcMV/vJda9uOo278H7YLJXL6H36WGY4B67lQLhQkn+FxBjQ4jt5CcBgxwIgCaqpAK2BZAlsTy4sIUJB04BISIy0AhOjs4xVClJRTBQBCSoeHQm8IzAThQp/+skmU+KPdZKZyP4x0gaEqW38LJJqnVyVderTLKF4IQJafHSaJRKjVqVtX521AKNr57ZJM1+d/TWQqp2JA+JDZ4OgZe3se4J+b5l/9Jgf5A7d22EIDV5+v+1oH4W/AdcX);strokeWidth=2;spacingTop=-3;spacingBottom=-3;spacingLeft=-3;spacingRight=-3;labelBackgroundColor=none;rounded=0;html=1;whiteSpace=wrap;" vertex="1" parent="LKHoJZJlkah-HH3FBG73-100">
          <mxGeometry width="53" height="76" as="geometry" />
        </mxCell>
        <mxCell id="LKHoJZJlkah-HH3FBG73-106" style="vsdxID=107;fillColor=#000000;gradientColor=none;fillOpacity=0;strokeOpacity=0;shape=stencil(pZLLDoMgEEW/hu0EGHm4tu1/mIiV1IpR+/r7QllUmmDTdDePe5gMcwlWc1ePhnA6L5M7mZttlo7gjnBuh85MdvERwT3BqnWTOU7uMjQxH+ugDNHZXcML98jRQHD6iJlSUPJX5RDFvR1WYs1Aiv8AVKAxDwgEXSYAl0B1HpB+QpEArABR5oGCgdYpsKn3bSpTvQAu8gBSYCxdQW2uQH/5oC/38sH70q3t+2iUdf/TGb4UXYX7Jw==);strokeWidth=0;spacingTop=-3;spacingBottom=-3;spacingLeft=-3;spacingRight=-3;labelBackgroundColor=none;rounded=0;html=1;whiteSpace=wrap;" vertex="1" parent="LKHoJZJlkah-HH3FBG73-100">
          <mxGeometry width="53" height="76" as="geometry" />
        </mxCell>
        <mxCell id="LKHoJZJlkah-HH3FBG73-107" value="&lt;p style=&quot;align:center;margin-left:0;margin-right:0;margin-top:0px;margin-bottom:0px;text-indent:0;valign:middle;direction:ltr;&quot;&gt;&lt;font style=&quot;font-size:11px;font-family:Arial;color:#000000;direction:ltr;letter-spacing:0px;line-height:100%;opacity:1&quot;&gt;PLD (Meltsan)&lt;/font&gt;&lt;/p&gt;" style="text;vsdxID=101;fillColor=none;gradientColor=none;strokeColor=none;strokeWidth=0;spacingTop=-3;spacingBottom=-3;spacingLeft=-3;spacingRight=-3;labelBackgroundColor=none;rounded=1;html=1;whiteSpace=wrap;verticalAlign=middle;align=center;;html=1;" vertex="1" parent="LKHoJZJlkah-HH3FBG73-100">
          <mxGeometry x="-19.05" y="81.71" width="92.08" height="13.34" as="geometry" />
        </mxCell>
        <mxCell id="LKHoJZJlkah-HH3FBG73-108" style="vsdxID=108;edgeStyle=none;startArrow=none;endArrow=block;startSize=5;endSize=5;strokeColor=#5e5e5e;spacingTop=-3;spacingBottom=-3;spacingLeft=-3;spacingRight=-3;verticalAlign=middle;html=1;labelBackgroundColor=none;rounded=1;exitX=0;exitY=0.5023255813953489;exitDx=0;exitDy=0;exitPerimeter=0;entryX=0.8301886792452831;entryY=0.5131578947368421;entryDx=0;entryDy=0;entryPerimeter=0;" edge="1" parent="1" source="LKHoJZJlkah-HH3FBG73-19" target="LKHoJZJlkah-HH3FBG73-100">
          <mxGeometry relative="1" as="geometry">
            <mxPoint as="offset" />
            <Array as="points">
              <mxPoint x="211.12" y="407" />
              <mxPoint x="211.12" y="253.72" />
            </Array>
          </mxGeometry>
        </mxCell>
        <mxCell id="LKHoJZJlkah-HH3FBG73-109" style="vsdxID=100;edgeStyle=none;startArrow=none;endArrow=block;startSize=5;endSize=5;strokeColor=#5e5e5e;spacingTop=-3;spacingBottom=-3;spacingLeft=-3;spacingRight=-3;verticalAlign=middle;html=1;labelBackgroundColor=none;rounded=1;exitX=0.013157894736842105;exitY=0.5131578947368421;exitDx=0;exitDy=0;exitPerimeter=0;entryX=0.9794520547945206;entryY=0.5023255813953489;entryDx=0;entryDy=0;entryPerimeter=0;" edge="1" parent="1" source="LKHoJZJlkah-HH3FBG73-94" target="LKHoJZJlkah-HH3FBG73-19">
          <mxGeometry relative="1" as="geometry">
            <mxPoint x="-1" y="-1" as="offset" />
            <Array as="points">
              <mxPoint x="689.1" y="420" />
              <mxPoint x="689.1" y="407.3" />
            </Array>
          </mxGeometry>
        </mxCell>
        <mxCell id="LKHoJZJlkah-HH3FBG73-110" style="vsdxID=99;edgeStyle=none;startArrow=none;endArrow=block;startSize=5;endSize=5;strokeColor=#5e5e5e;spacingTop=-3;spacingBottom=-3;spacingLeft=-3;spacingRight=-3;verticalAlign=middle;html=1;labelBackgroundColor=none;rounded=1;exitX=0;exitY=0.5;exitDx=0;exitDy=0;exitPerimeter=0;entryX=1;entryY=0.5131578947368421;entryDx=0;entryDy=0;entryPerimeter=0;" edge="1" parent="1" source="LKHoJZJlkah-HH3FBG73-41" target="LKHoJZJlkah-HH3FBG73-94">
          <mxGeometry relative="1" as="geometry">
            <mxPoint as="offset" />
            <Array as="points">
              <mxPoint x="875.82" y="171" />
              <mxPoint x="875.82" y="419.54" />
            </Array>
          </mxGeometry>
        </mxCell>
        <mxCell id="LKHoJZJlkah-HH3FBG73-111" style="vsdxID=93;edgeStyle=none;startArrow=none;endArrow=block;startSize=5;endSize=5;strokeColor=#5e5e5e;spacingTop=-3;spacingBottom=-3;spacingLeft=-3;spacingRight=-3;verticalAlign=middle;html=1;labelBackgroundColor=none;rounded=1;exitX=0;exitY=0.5023255813953489;exitDx=0;exitDy=0;exitPerimeter=0;entryX=0.5;entryY=0;entryDx=0;entryDy=0;entryPerimeter=0;" edge="1" parent="1" source="LKHoJZJlkah-HH3FBG73-19" target="LKHoJZJlkah-HH3FBG73-82">
          <mxGeometry relative="1" as="geometry">
            <mxPoint x="56" y="56" as="offset" />
            <Array as="points">
              <mxPoint x="112.7" y="407" />
            </Array>
          </mxGeometry>
        </mxCell>
        <mxCell id="LKHoJZJlkah-HH3FBG73-112" style="vsdxID=81;edgeStyle=none;startArrow=none;endArrow=block;startSize=5;endSize=5;strokeColor=#5e5e5e;spacingTop=-3;spacingBottom=-3;spacingLeft=-3;spacingRight=-3;verticalAlign=middle;html=1;labelBackgroundColor=none;rounded=1;exitX=0;exitY=0.5023255813953489;exitDx=0;exitDy=0;exitPerimeter=0;entryX=1;entryY=0.5;entryDx=0;entryDy=0;entryPerimeter=0;" edge="1" parent="1" source="LKHoJZJlkah-HH3FBG73-19" target="LKHoJZJlkah-HH3FBG73-67">
          <mxGeometry relative="1" as="geometry">
            <mxPoint y="-1" as="offset" />
            <Array as="points">
              <mxPoint x="221.92" y="407" />
              <mxPoint x="221.92" y="82.7" />
            </Array>
          </mxGeometry>
        </mxCell>
        <mxCell id="LKHoJZJlkah-HH3FBG73-113" style="vsdxID=66;edgeStyle=none;startArrow=none;endArrow=block;startSize=5;endSize=5;strokeColor=#5e5e5e;spacingTop=-3;spacingBottom=-3;spacingLeft=-3;spacingRight=-3;verticalAlign=middle;html=1;labelBackgroundColor=none;rounded=1;exitX=0;exitY=0.5052631578947369;exitDx=0;exitDy=0;exitPerimeter=0;entryX=0;entryY=0.5131578947368421;entryDx=0;entryDy=0;entryPerimeter=0;" edge="1" parent="1" source="LKHoJZJlkah-HH3FBG73-45" target="LKHoJZJlkah-HH3FBG73-61">
          <mxGeometry relative="1" as="geometry">
            <mxPoint x="-38" as="offset" />
            <Array as="points" />
          </mxGeometry>
        </mxCell>
        <mxCell id="LKHoJZJlkah-HH3FBG73-114" style="vsdxID=65;edgeStyle=none;startArrow=none;endArrow=block;startSize=5;endSize=5;strokeColor=#5e5e5e;spacingTop=-3;spacingBottom=-3;spacingLeft=-3;spacingRight=-3;verticalAlign=middle;html=1;labelBackgroundColor=none;rounded=1;exitX=0.5;exitY=0;exitDx=0;exitDy=0;exitPerimeter=0;entryX=0.5038461538461538;entryY=1.0056497175141244;entryDx=0;entryDy=0;entryPerimeter=0;" edge="1" parent="1" source="LKHoJZJlkah-HH3FBG73-45" target="LKHoJZJlkah-HH3FBG73-30">
          <mxGeometry relative="1" as="geometry">
            <mxPoint as="offset" />
            <Array as="points" />
          </mxGeometry>
        </mxCell>
        <mxCell id="LKHoJZJlkah-HH3FBG73-115" style="vsdxID=64;edgeStyle=none;startArrow=none;endArrow=block;startSize=5;endSize=5;strokeColor=#5e5e5e;spacingTop=-3;spacingBottom=-3;spacingLeft=-3;spacingRight=-3;verticalAlign=middle;html=1;labelBackgroundColor=none;rounded=1;exitX=0.5;exitY=1;exitDx=0;exitDy=0;exitPerimeter=0;entryX=0.5038461538461538;entryY=0;entryDx=0;entryDy=0;entryPerimeter=0;" edge="1" parent="1" source="LKHoJZJlkah-HH3FBG73-41" target="LKHoJZJlkah-HH3FBG73-30">
          <mxGeometry relative="1" as="geometry">
            <mxPoint as="offset" />
            <Array as="points" />
          </mxGeometry>
        </mxCell>
        <mxCell id="LKHoJZJlkah-HH3FBG73-116" style="vsdxID=63;edgeStyle=none;startArrow=none;endArrow=block;startSize=5;endSize=5;strokeColor=#5e5e5e;spacingTop=-3;spacingBottom=-3;spacingLeft=-3;spacingRight=-3;verticalAlign=middle;html=1;labelBackgroundColor=none;rounded=1;exitX=0;exitY=0.5;exitDx=0;exitDy=0;exitPerimeter=0;entryX=1;entryY=0.5;entryDx=0;entryDy=0;entryPerimeter=0;" edge="1" parent="1" source="LKHoJZJlkah-HH3FBG73-41" target="LKHoJZJlkah-HH3FBG73-55">
          <mxGeometry relative="1" as="geometry">
            <mxPoint y="-1" as="offset" />
            <Array as="points">
              <mxPoint x="875.82" y="171" />
              <mxPoint x="875.82" y="304.35" />
            </Array>
          </mxGeometry>
        </mxCell>
        <mxCell id="LKHoJZJlkah-HH3FBG73-117" style="vsdxID=62;edgeStyle=none;startArrow=none;endArrow=block;startSize=5;endSize=5;strokeColor=#5e5e5e;spacingTop=-3;spacingBottom=-3;spacingLeft=-3;spacingRight=-3;verticalAlign=middle;html=1;labelBackgroundColor=none;rounded=1;exitX=0;exitY=0.5;exitDx=0;exitDy=0;exitPerimeter=0;entryX=1;entryY=0.5;entryDx=0;entryDy=0;entryPerimeter=0;" edge="1" parent="1" source="LKHoJZJlkah-HH3FBG73-41" target="LKHoJZJlkah-HH3FBG73-24">
          <mxGeometry relative="1" as="geometry">
            <mxPoint as="offset" />
            <Array as="points">
              <mxPoint x="875.82" y="171" />
              <mxPoint x="875.82" y="50.35" />
            </Array>
          </mxGeometry>
        </mxCell>
        <mxCell id="LKHoJZJlkah-HH3FBG73-118" style="vsdxID=61;edgeStyle=none;startArrow=none;endArrow=block;startSize=5;endSize=5;strokeColor=#5e5e5e;spacingTop=-3;spacingBottom=-3;spacingLeft=-3;spacingRight=-3;verticalAlign=middle;html=1;labelBackgroundColor=none;rounded=1;exitX=0;exitY=0.5;exitDx=0;exitDy=0;exitPerimeter=0;entryX=1;entryY=0.5;entryDx=0;entryDy=0;entryPerimeter=0;" edge="1" parent="1" source="LKHoJZJlkah-HH3FBG73-41" target="LKHoJZJlkah-HH3FBG73-49">
          <mxGeometry relative="1" as="geometry">
            <mxPoint as="offset" />
            <Array as="points">
              <mxPoint x="875.82" y="171" />
              <mxPoint x="875.82" y="177.35" />
            </Array>
          </mxGeometry>
        </mxCell>
        <mxCell id="LKHoJZJlkah-HH3FBG73-119" style="vsdxID=57;edgeStyle=none;startArrow=none;endArrow=block;startSize=5;endSize=5;strokeColor=#5e5e5e;spacingTop=-3;spacingBottom=-3;spacingLeft=-3;spacingRight=-3;verticalAlign=middle;html=1;labelBackgroundColor=none;rounded=1;exitX=0.013157894736842105;exitY=0.5131578947368421;exitDx=0;exitDy=0;exitPerimeter=0;entryX=0.9794520547945206;entryY=0.5023255813953489;entryDx=0;entryDy=0;entryPerimeter=0;" edge="1" parent="1" source="LKHoJZJlkah-HH3FBG73-61" target="LKHoJZJlkah-HH3FBG73-19">
          <mxGeometry relative="1" as="geometry">
            <mxPoint x="-1" y="-1" as="offset" />
            <Array as="points">
              <mxPoint x="689.1" y="654" />
              <mxPoint x="689.1" y="407.24" />
            </Array>
          </mxGeometry>
        </mxCell>
        <mxCell id="LKHoJZJlkah-HH3FBG73-120" style="vsdxID=58;edgeStyle=none;startArrow=none;endArrow=block;startSize=5;endSize=5;strokeColor=#5e5e5e;spacingTop=-3;spacingBottom=-3;spacingLeft=-3;spacingRight=-3;verticalAlign=middle;html=1;labelBackgroundColor=none;rounded=1;exitX=0.013157894736842105;exitY=0.5;exitDx=0;exitDy=0;exitPerimeter=0;entryX=0.5;entryY=0;entryDx=0;entryDy=0;entryPerimeter=0;" edge="1" parent="1" source="LKHoJZJlkah-HH3FBG73-55" target="LKHoJZJlkah-HH3FBG73-19">
          <mxGeometry relative="1" as="geometry">
            <mxPoint x="-2" y="27" as="offset" />
            <Array as="points">
              <mxPoint x="724.6" y="304" />
              <mxPoint x="724.6" y="274.73" />
              <mxPoint x="488.63" y="274.73" />
            </Array>
          </mxGeometry>
        </mxCell>
        <mxCell id="LKHoJZJlkah-HH3FBG73-121" style="vsdxID=59;edgeStyle=none;startArrow=none;endArrow=block;startSize=5;endSize=5;strokeColor=#5e5e5e;spacingTop=-3;spacingBottom=-3;spacingLeft=-3;spacingRight=-3;verticalAlign=middle;html=1;labelBackgroundColor=none;rounded=1;exitX=0.013157894736842105;exitY=0.5;exitDx=0;exitDy=0;exitPerimeter=0;entryX=0.5;entryY=0;entryDx=0;entryDy=0;entryPerimeter=0;" edge="1" parent="1" source="LKHoJZJlkah-HH3FBG73-49" target="LKHoJZJlkah-HH3FBG73-19">
          <mxGeometry relative="1" as="geometry">
            <mxPoint x="61" y="61" as="offset" />
            <Array as="points">
              <mxPoint x="488.63" y="177" />
            </Array>
          </mxGeometry>
        </mxCell>
        <mxCell id="LKHoJZJlkah-HH3FBG73-122" style="vsdxID=60;edgeStyle=none;startArrow=none;endArrow=block;startSize=5;endSize=5;strokeColor=#5e5e5e;spacingTop=-3;spacingBottom=-3;spacingLeft=-3;spacingRight=-3;verticalAlign=middle;html=1;labelBackgroundColor=none;rounded=1;exitX=0.013157894736842105;exitY=0.5;exitDx=0;exitDy=0;exitPerimeter=0;entryX=0.5;entryY=0;entryDx=0;entryDy=0;entryPerimeter=0;" edge="1" parent="1" source="LKHoJZJlkah-HH3FBG73-24" target="LKHoJZJlkah-HH3FBG73-19">
          <mxGeometry relative="1" as="geometry">
            <mxPoint x="125" y="125" as="offset" />
            <Array as="points">
              <mxPoint x="488.63" y="50" />
            </Array>
          </mxGeometry>
        </mxCell>
      </root>
    </mxGraphModel>
  </diagram>
</mxfile>
